<svg version="1.2" xmlns="http://www.w3.org/2000/svg" viewBox="0 0 500 500" width="500" height="500">
	<style>
		.s0 { fill: #1a7dc9 } 
		.s1 { fill: #ffffff } 
		.s2 { fill: #060b0f } 
	</style>
	<path id="Shape 1" class="s0" d="m430 192.09c0 79.5-109.69 221.04-157.78 279.43-11.53 13.92-32.91 13.92-44.44 0-48.09-58.39-157.78-199.93-157.78-279.43 0-96.42 80.62-174.65 180-174.65 99.37 0 180 78.23 180 174.65z"/>
	<path id="Shape 2" fill-rule="evenodd" class="s1" d="m250 340c-77.42 0-140-62.58-140-140 0-77.42 62.58-140 140-140 77.42 0 140 62.58 140 140 0 77.42-62.58 140-140 140z"/>
	<path id="Path 0" class="s2" d="m248.37 80.81c-0.52 0.42-0.85 11.32-0.75 24.22l0.18 23.47c-5.11 7.67-6.6 11.01-6.6 12.38 0.01 1.36 1 4.08 2.2 6.05 1.21 1.96 2.22 4.19 2.23 4.95 0.02 0.75-2.43 3.6-5.45 6.32-3.02 2.72-5.51 5.82-5.53 6.88-0.03 1.05-0.67 1.93-1.42 1.94-0.76 0.01-1.87-0.49-2.48-1.1-0.6-0.62-2.15-1.74-3.43-2.5-1.28-0.75-4.37-2.48-6.87-3.84-3.98-2.17-4.68-3.14-5.59-7.7-0.57-2.88-1.87-9.19-2.9-14.03-1.03-4.84-2.58-10.53-3.46-12.65-0.87-2.12-2.88-6.57-4.46-9.9-1.58-3.33-4.96-9.27-7.51-13.2-2.55-3.93-7.4-9.75-10.78-12.93-5.21-4.89-6.42-5.56-7.9-4.4-1.54 1.22-1.17 1.91 3.05 5.78 2.64 2.42 6.34 6.63 8.23 9.35 1.89 2.72 5.86 9.65 8.82 15.4 2.96 5.75 6.05 12.43 6.86 14.85 0.81 2.42 1.83 8.36 2.26 13.2 0.54 6.03 1.67 10.53 3.58 14.3 2.42 4.77 4.09 6.27 12.55 11.3 5.36 3.19 10.86 6.78 12.23 7.97 1.36 1.2 2.47 2.92 2.47 3.83 0 0.91-0.87 1.88-1.92 2.17-1.06 0.28-3.91-0.02-6.33-0.66-2.42-0.65-8.36-2.09-13.2-3.19-4.84-1.11-12.26-2.77-16.5-3.68-4.23-0.91-12.9-2.43-19.25-3.37-6.35-0.93-15.76-1.7-20.9-1.7-5.14-0.01-12.32 0.5-15.95 1.11-3.63 0.62-7.84 1.73-9.35 2.48-1.97 0.97-2.83 2.37-3.03 4.92-0.15 1.96 0.66 5.18 1.79 7.14 1.13 1.97 3.98 4.82 6.32 6.32 2.35 1.51 6.74 3.98 9.77 5.48 5.33 2.64 6.22 2.72 29.15 2.75 21.41 0.03 24.54-0.21 33-2.53 5.14-1.41 11.58-3.27 14.3-4.13 2.72-0.87 5.82-1.57 6.88-1.57 1.05 0.01 2.23 0.63 2.6 1.39 0.38 0.75 0.01 2.48-0.82 3.84-0.83 1.35-2.5 2.69-3.71 2.98-1.21 0.28-5.08 2.14-8.61 4.13-3.52 1.99-7.48 4.18-8.8 4.87-1.31 0.7-4.88 3.67-7.93 6.6-3.05 2.94-6.57 7.58-7.83 10.3-1.67 3.61-2.43 7.94-2.79 15.95-0.41 8.9-1.05 12.15-3.38 17.05-1.58 3.33-3.77 7.05-4.87 8.28-1.09 1.23-5.22 4.94-9.17 8.25-3.96 3.31-8.54 7.01-10.18 8.22-1.65 1.21-3 2.82-2.99 3.58 0 0.75 0.25 1.37 0.55 1.37 0.3 0 1.91-0.85 3.57-1.89 1.67-1.04 5.01-3.4 7.43-5.23 2.42-1.83 4.65-3.59 4.95-3.9 0.3-0.31 2.28-2 4.4-3.75 2.12-1.75 5.81-5.7 8.21-8.78 2.4-3.08 5.06-7.83 5.92-10.55 0.85-2.72 1.85-9.75 2.23-15.62 0.67-10.43 0.78-10.75 4.75-14.85 2.24-2.3 5.95-5.56 8.25-7.24 2.31-1.68 7.66-5.26 11.89-7.95 4.24-2.69 8.57-4.9 9.63-4.92 1.05-0.01 1.92 0.48 1.92 1.08 0 0.61-1.92 3.7-4.28 6.88-2.35 3.17-6.98 10.47-10.29 16.22-3.31 5.75-6.81 13.42-7.77 17.05-1.01 3.79-1.96 12.92-2.23 21.45-0.37 11.52-1.02 16.46-2.91 22-1.34 3.93-3.28 8.88-4.32 11-1.03 2.12-2.6 5.09-3.47 6.6-0.87 1.51-3.19 4.85-5.15 7.43-1.97 2.57-3.58 4.92-3.58 5.22 0 0.3 1.03 0.55 2.28 0.55 1.25 0 2.88-0.62 3.61-1.37 0.73-0.76 2.38-2.86 3.66-4.68 1.28-1.81 4.36-7.38 6.84-12.37 2.48-5 5.04-11.18 5.7-13.75 0.65-2.58 1.61-10.87 2.13-18.43 0.52-7.56 1.38-15.98 1.91-18.7 0.53-2.72 2.37-7.42 4.09-10.45 1.71-3.02 3.68-6.49 4.35-7.7 0.68-1.21 3.7-6.36 6.71-11.45 3.01-5.09 6.11-9.55 6.88-9.9 0.78-0.36 1.95-0.15 2.59 0.45 0.82 0.77 0.24 4.55-1.96 12.65-2.58 9.53-3.19 14.25-3.49 26.95-0.34 14.28-0.16 16.04 2.56 24.2 1.61 4.84 3.75 10.18 4.76 11.88 1 1.69 2.82 3.36 4.03 3.7 1.21 0.35 2.7 0.39 3.3 0.09 0.61-0.3 2.59-4.44 4.4-9.21 3.18-8.35 3.3-9.3 3.3-26.82 0-15.54-0.34-19.28-2.39-25.85-1.31-4.23-2.92-9.55-3.57-11.81-1.01-3.51-0.9-4.38 0.74-5.81 1.73-1.5 2.09-1.49 3.57 0.18 0.91 1.02 2.15 2.73 2.75 3.8 0.61 1.07 3.56 6.06 6.57 11.1 3.01 5.03 6.4 11.13 7.53 13.55 1.13 2.42 2.75 7 3.6 10.18 0.85 3.17 1.55 9.11 1.56 13.2 0 4.08 0.54 10.64 1.2 14.57 0.66 3.93 2.44 10.37 3.97 14.3 1.53 3.93 3.85 9.13 5.15 11.55 1.29 2.42 4.08 7 6.19 10.18 2.74 4.14 4.54 5.78 6.31 5.78 1.36-0.01 2.47-0.5 2.47-1.11 0-0.6-1.13-2.46-2.51-4.12-1.38-1.67-3.75-5.01-5.26-7.43-1.5-2.42-3.81-6.63-5.13-9.35-1.31-2.72-3.21-7.42-4.22-10.45-1.1-3.29-2.25-12.13-2.85-22-0.58-9.52-1.76-18.83-2.8-22-0.99-3.02-2.96-7.73-4.39-10.45-1.43-2.72-3.21-5.92-3.95-7.11-0.74-1.19-3.57-5.59-6.29-9.78-2.72-4.19-5.32-7.79-5.77-8.01-0.46-0.22-0.83-1.39-0.83-2.6 0-1.21 0.62-2.21 1.38-2.23 0.75-0.01 4.55 2.09 8.44 4.68 3.89 2.58 7.85 5.2 8.8 5.8 0.95 0.61 4.82 4.19 8.61 7.98 3.78 3.78 7.09 7.98 7.36 9.35 0.26 1.36 1.24 7.17 2.17 12.92 1.01 6.31 2.87 12.85 4.69 16.5 1.84 3.7 6.46 9.47 11.88 14.85 4.88 4.84 10.84 10.2 13.25 11.91 2.4 1.71 5.11 2.93 6.02 2.7 1.08-0.27-2.73-4.75-11.07-13.01-11.1-11-13.01-13.44-15.05-19.2-1.28-3.63-2.86-9.57-3.51-13.2-0.65-3.63-1.18-7.96-1.18-9.62 0.01-1.67-1.09-5.38-2.42-8.25-1.34-2.88-4.93-7.64-7.98-10.58-3.05-2.93-6.6-5.9-7.9-6.6-1.29-0.69-6.62-3.72-11.84-6.75-5.21-3.02-9.7-5.99-9.96-6.6-0.26-0.6 0.2-2.09 1.03-3.3 1.47-2.16 1.6-2.17 8.46-0.24 3.83 1.08 10.68 2.99 15.22 4.25 4.54 1.26 11.47 2.78 15.4 3.38 3.93 0.59 14.82 0.84 24.2 0.56 15.88-0.49 17.5-0.74 23.65-3.65 3.63-1.72 8.69-5.12 11.25-7.56 3.39-3.24 4.65-5.33 4.69-7.74 0.03-1.81-0.58-4.18-1.35-5.25-0.76-1.08-4.36-2.77-7.99-3.77-4.69-1.28-11.22-1.81-22.55-1.83-11.74-0.01-19.58 0.63-29.7 2.44-7.56 1.34-14 2.65-14.3 2.9-0.3 0.25-3.52 1-7.15 1.66-3.63 0.67-9.68 2.3-13.45 3.63-6.54 2.31-6.93 2.33-8.8 0.48-1.87-1.85-1.83-2.04 0.8-4.45 1.51-1.38 5.1-4.09 7.98-6.03 2.87-1.94 5.47-3.53 5.77-3.53 0.3 0 2.34-1.61 4.53-3.57 2.19-1.97 5.12-6.05 6.51-9.08 1.38-3.02 3.07-9.46 3.74-14.3 0.68-4.84 2.29-11.77 3.59-15.4 1.3-3.63 4.38-10.15 6.85-14.48 2.46-4.34 7.2-11.38 10.53-15.66 3.33-4.27 6.92-8.03 7.98-8.34 1.05-0.31 2.12-1.19 2.38-1.94 0.25-0.76 0.04-2.12-0.46-3.03-0.8-1.45-1.22-1.44-3.48 0.14-1.41 0.98-4.1 3.21-5.98 4.95-1.87 1.74-5.15 5.39-7.28 8.11-2.14 2.72-5.82 8.42-8.19 12.65-2.37 4.23-4.96 9.43-5.75 11.55-0.79 2.12-1.84 4.84-2.32 6.05-0.49 1.21-2.17 6.9-3.74 12.65-1.57 5.75-2.84 11.94-2.84 13.75 0.01 1.82-0.61 4.1-1.38 5.09-0.76 0.98-4.73 3.58-8.81 5.77l-7.43 3.99c-1.73-3.84-4.45-6.81-7.17-9.07-2.71-2.27-4.93-4.87-4.93-5.78 0-0.91 0.99-3.38 2.2-5.5 1.21-2.12 2.21-4.72 2.22-5.77 0-1.06-1.48-4.28-3.3-7.15l-3.32-5.23c-0.46-39.51-0.95-47.8-1.72-48.06-0.65-0.21-1.6-0.05-2.11 0.37z"/>
</svg>