<svg version="1.2" xmlns="http://www.w3.org/2000/svg" viewBox="0 0 420 80" width="420" height="80">
	<style>
		.s0 { fill: #1a7dc9 } 
		.s1 { fill: #ffffff } 
		.s2 { fill: #060b0f } 
	</style>
	<path id="Shape 1" class="s0" d="m73.6 30.94c0 12.72-17.55 35.37-25.25 44.71-1.84 2.23-5.26 2.23-7.11 0-7.69-9.34-25.24-31.99-25.24-44.71 0-15.42 12.9-27.94 28.8-27.94 15.9 0 28.8 12.52 28.8 27.94z"/>
	<path id="Shape 2" fill-rule="evenodd" class="s1" d="m44.8 54.61c-12.39 0-22.4-10.01-22.4-22.4 0-12.39 10.01-22.4 22.4-22.4 12.39 0 22.4 10.01 22.4 22.4 0 12.39-10.01 22.4-22.4 22.4z"/>
	<path id="Path 0" class="s2" d="m44.54 13.14c-0.08 0.07-0.14 1.81-0.12 3.87l0.03 3.76c-0.82 1.23-1.06 1.76-1.06 1.98 0 0.22 0.16 0.65 0.35 0.97 0.2 0.31 0.36 0.67 0.36 0.79 0 0.12-0.39 0.58-0.87 1.01-0.48 0.44-0.88 0.93-0.89 1.1 0 0.17-0.1 0.31-0.22 0.31-0.12 0-0.3-0.08-0.4-0.17-0.1-0.1-0.34-0.28-0.55-0.4-0.2-0.12-0.7-0.4-1.1-0.62-0.63-0.34-0.75-0.5-0.89-1.23-0.09-0.46-0.3-1.47-0.47-2.24-0.16-0.78-0.41-1.69-0.55-2.03-0.14-0.34-0.46-1.05-0.71-1.58-0.26-0.53-0.8-1.49-1.2-2.11-0.41-0.63-1.19-1.56-1.73-2.07-0.83-0.79-1.03-0.89-1.26-0.71-0.25 0.2-0.19 0.31 0.48 0.93 0.43 0.38 1.02 1.06 1.32 1.49 0.3 0.44 0.94 1.55 1.41 2.47 0.48 0.92 0.97 1.99 1.1 2.37 0.13 0.39 0.29 1.34 0.36 2.12 0.09 0.96 0.27 1.68 0.57 2.28 0.39 0.77 0.66 1.01 2.01 1.81 0.86 0.51 1.74 1.09 1.96 1.28 0.22 0.19 0.39 0.46 0.39 0.61 0 0.14-0.13 0.3-0.3 0.35-0.17 0.04-0.63-0.01-1.02-0.11-0.38-0.1-1.33-0.33-2.11-0.51-0.77-0.18-1.96-0.44-2.64-0.59-0.68-0.14-2.06-0.39-3.08-0.54-1.01-0.15-2.52-0.27-3.34-0.27-0.82 0-1.97 0.08-2.55 0.18-0.58 0.1-1.26 0.28-1.5 0.39-0.31 0.16-0.45 0.38-0.48 0.79-0.03 0.32 0.1 0.83 0.28 1.15 0.18 0.31 0.64 0.77 1.01 1.01 0.38 0.24 1.08 0.63 1.57 0.87 0.85 0.43 0.99 0.44 4.66 0.44 3.43 0.01 3.93-0.03 5.28-0.4 0.82-0.23 1.85-0.53 2.29-0.66 0.43-0.14 0.93-0.25 1.1-0.25 0.17 0 0.36 0.1 0.42 0.22 0.06 0.12 0 0.4-0.14 0.61-0.13 0.22-0.4 0.43-0.59 0.48-0.19 0.04-0.81 0.34-1.38 0.66-0.56 0.32-1.2 0.67-1.41 0.78-0.21 0.11-0.78 0.59-1.26 1.06-0.49 0.47-1.06 1.21-1.26 1.64-0.26 0.58-0.39 1.27-0.44 2.56-0.07 1.42-0.17 1.94-0.54 2.72-0.26 0.54-0.61 1.13-0.78 1.33-0.18 0.19-0.84 0.79-1.47 1.32-0.63 0.53-1.37 1.12-1.63 1.31-0.26 0.2-0.48 0.45-0.48 0.58 0 0.12 0.04 0.22 0.09 0.22 0.05 0 0.31-0.14 0.57-0.31 0.27-0.16 0.8-0.54 1.19-0.83 0.39-0.3 0.74-0.58 0.79-0.63 0.05-0.05 0.37-0.32 0.71-0.6 0.33-0.28 0.93-0.91 1.31-1.4 0.38-0.5 0.81-1.25 0.95-1.69 0.13-0.44 0.29-1.56 0.35-2.5 0.11-1.67 0.13-1.72 0.76-2.37 0.36-0.37 0.96-0.89 1.32-1.16 0.37-0.27 1.23-0.85 1.91-1.28 0.67-0.43 1.37-0.78 1.54-0.78 0.17 0 0.3 0.07 0.3 0.17 0 0.1-0.3 0.59-0.68 1.1-0.38 0.51-1.12 1.68-1.65 2.6-0.53 0.92-1.09 2.14-1.24 2.72-0.16 0.61-0.31 2.07-0.36 3.44-0.06 1.84-0.16 2.63-0.46 3.52-0.22 0.62-0.53 1.42-0.69 1.76-0.17 0.33-0.42 0.81-0.56 1.05-0.14 0.24-0.51 0.78-0.82 1.19-0.32 0.41-0.58 0.79-0.58 0.84 0 0.04 0.17 0.08 0.37 0.08 0.2 0 0.46-0.1 0.58-0.22 0.11-0.12 0.38-0.45 0.58-0.74 0.21-0.29 0.7-1.19 1.1-1.98 0.39-0.8 0.8-1.79 0.91-2.2 0.1-0.42 0.26-1.74 0.34-2.95 0.08-1.21 0.22-2.56 0.3-2.99 0.09-0.44 0.38-1.19 0.66-1.68 0.27-0.48 0.59-1.03 0.7-1.23 0.1-0.19 0.59-1.02 1.07-1.83 0.48-0.82 0.98-1.53 1.1-1.58 0.12-0.06 0.31-0.03 0.41 0.07 0.14 0.12 0.04 0.73-0.31 2.02-0.41 1.53-0.51 2.28-0.56 4.31-0.05 2.29-0.02 2.57 0.41 3.88 0.26 0.77 0.6 1.63 0.76 1.9 0.16 0.27 0.45 0.53 0.65 0.59 0.19 0.05 0.43 0.06 0.53 0.01 0.09-0.04 0.41-0.71 0.7-1.47 0.51-1.34 0.53-1.49 0.53-4.29 0-2.49-0.06-3.09-0.38-4.14-0.21-0.67-0.47-1.53-0.58-1.89-0.16-0.56-0.14-0.7 0.12-0.93 0.28-0.24 0.34-0.24 0.57 0.03 0.15 0.17 0.35 0.44 0.44 0.61 0.1 0.17 0.57 0.97 1.06 1.77 0.48 0.81 1.02 1.79 1.2 2.17 0.18 0.39 0.44 1.12 0.58 1.63 0.13 0.51 0.24 1.46 0.25 2.11 0 0.66 0.08 1.71 0.19 2.34 0.1 0.62 0.39 1.65 0.63 2.28 0.25 0.63 0.62 1.46 0.83 1.85 0.2 0.39 0.65 1.12 0.99 1.63 0.44 0.66 0.72 0.93 1.01 0.92 0.21 0 0.39-0.08 0.39-0.17 0-0.1-0.18-0.4-0.4-0.66-0.22-0.27-0.6-0.8-0.84-1.19-0.24-0.39-0.61-1.06-0.82-1.5-0.21-0.43-0.52-1.18-0.68-1.67-0.17-0.52-0.36-1.94-0.45-3.52-0.1-1.52-0.29-3.01-0.45-3.52-0.16-0.48-0.48-1.23-0.7-1.67-0.23-0.44-0.52-0.95-0.63-1.14-0.12-0.19-0.58-0.89-1.01-1.56-0.44-0.67-0.85-1.25-0.93-1.28-0.07-0.04-0.13-0.23-0.13-0.42 0-0.19 0.1-0.35 0.22-0.36 0.12 0 0.73 0.34 1.35 0.75 0.63 0.41 1.26 0.83 1.41 0.93 0.15 0.1 0.77 0.67 1.38 1.28 0.6 0.6 1.13 1.27 1.18 1.49 0.04 0.22 0.19 1.15 0.34 2.07 0.17 1.01 0.46 2.06 0.75 2.64 0.3 0.59 1.04 1.51 1.91 2.38 0.78 0.77 1.73 1.63 2.11 1.9 0.39 0.28 0.82 0.47 0.97 0.43 0.17-0.04-0.44-0.76-1.77-2.08-1.78-1.76-2.08-2.15-2.41-3.07-0.21-0.58-0.46-1.53-0.56-2.11-0.11-0.58-0.19-1.28-0.19-1.54 0-0.27-0.18-0.86-0.39-1.32-0.21-0.46-0.79-1.22-1.28-1.69-0.48-0.47-1.05-0.95-1.26-1.06-0.21-0.11-1.06-0.6-1.89-1.08-0.84-0.48-1.56-0.96-1.6-1.06-0.04-0.09 0.03-0.33 0.17-0.52 0.23-0.35 0.25-0.35 1.35-0.04 0.61 0.17 1.71 0.48 2.44 0.68 0.72 0.2 1.83 0.44 2.46 0.54 0.63 0.09 2.37 0.13 3.87 0.09 2.54-0.08 2.8-0.12 3.79-0.59 0.58-0.27 1.39-0.82 1.8-1.21 0.54-0.51 0.74-0.85 0.75-1.23 0-0.29-0.1-0.67-0.22-0.85-0.12-0.17-0.7-0.44-1.28-0.6-0.75-0.2-1.79-0.29-3.61-0.29-1.87 0-3.13 0.1-4.75 0.39-1.21 0.22-2.24 0.42-2.29 0.46-0.04 0.04-0.56 0.16-1.14 0.27-0.58 0.11-1.55 0.37-2.15 0.58-1.05 0.37-1.11 0.37-1.41 0.08-0.3-0.3-0.29-0.33 0.13-0.71 0.24-0.22 0.81-0.66 1.27-0.97 0.46-0.31 0.88-0.56 0.93-0.56 0.05 0 0.37-0.26 0.72-0.58 0.35-0.31 0.82-0.96 1.04-1.45 0.23-0.48 0.5-1.51 0.6-2.29 0.11-0.77 0.37-1.88 0.58-2.46 0.21-0.58 0.7-1.62 1.09-2.32 0.4-0.69 1.16-1.82 1.69-2.5 0.53-0.69 1.1-1.29 1.27-1.34 0.17-0.05 0.34-0.19 0.38-0.31 0.04-0.12 0.01-0.34-0.07-0.48-0.13-0.23-0.19-0.23-0.55 0.02-0.23 0.16-0.66 0.51-0.96 0.79-0.3 0.28-0.83 0.86-1.17 1.3-0.34 0.44-0.93 1.35-1.31 2.02-0.38 0.68-0.79 1.51-0.92 1.85-0.12 0.34-0.29 0.78-0.37 0.97-0.08 0.19-0.35 1.1-0.6 2.02-0.25 0.92-0.45 1.91-0.45 2.2 0 0.29-0.1 0.66-0.22 0.82-0.12 0.15-0.76 0.57-1.41 0.92l-1.19 0.64c-0.28-0.61-0.71-1.09-1.15-1.45-0.43-0.37-0.79-0.78-0.79-0.93 0-0.14 0.16-0.54 0.36-0.88 0.19-0.34 0.35-0.75 0.35-0.92 0-0.17-0.24-0.68-0.53-1.14l-0.53-0.84c-0.07-6.32-0.15-7.65-0.27-7.69-0.11-0.03-0.26-0.01-0.34 0.06z"/>
	<path id="Aedes Map" class="s1" aria-label="Aedes Map"  d="m116.9 12.1l17.2 42.9h-9.4l-3.8-9.8h-17.2l-3.5 9.8h-9.2l16.7-42.9zm-10.5 25.9h11.8l-6-15.9zm50 7.1l8.2 1.3q-1.6 4.5-5.1 6.9-3.4 2.4-8.5 2.4-8.1 0-12-5.3-3.1-4.3-3.1-10.8 0-7.7 4.1-12.1 4-4.4 10.2-4.4 6.9 0 11 4.6 4 4.6 3.8 14.1h-20.6q0.1 3.6 2 5.7 1.9 2 4.7 2 1.9 0 3.3-1 1.3-1.1 2-3.4zm-11.9-8.4h12.3q-0.1-3.5-1.8-5.4-1.8-1.9-4.3-1.9-2.7 0-4.5 2-1.7 2-1.7 5.3zm56.4-24.7v43h-7.7v-4.6q-1.9 2.7-4.5 4-2.6 1.3-5.2 1.3-5.4 0-9.2-4.3-3.8-4.4-3.8-12.1 0-7.9 3.7-12 3.7-4.2 9.4-4.2 5.2 0 9 4.4v-15.5zm-21.9 26.7q0 5 1.3 7.2 2 3.3 5.6 3.3 2.9 0 4.8-2.4 2-2.5 2-7.3 0-5.3-1.9-7.7-1.9-2.4-4.9-2.4-3 0-5 2.4-1.9 2.3-1.9 6.9zm47.4 6.4l8.2 1.3q-1.6 4.5-5 6.9-3.4 2.4-8.5 2.4-8.1 0-12-5.3-3.1-4.3-3.1-10.8 0-7.7 4-12.1 4.1-4.4 10.3-4.4 6.9 0 10.9 4.6 4 4.6 3.9 14.1h-20.7q0.1 3.6 2 5.7 1.9 2 4.8 2 1.9 0 3.2-1 1.3-1.1 2-3.4zm-11.8-8.4h12.3q-0.1-3.5-1.9-5.4-1.7-1.9-4.2-1.9-2.7 0-4.5 2-1.7 2-1.7 5.3zm24.9 9.4l8.3-1.3q0.5 2.4 2.1 3.7 1.6 1.2 4.5 1.2 3.2 0 4.8-1.2 1.1-0.8 1.1-2.2 0-0.9-0.6-1.5-0.6-0.6-2.7-1.1-10-2.2-12.7-4-3.7-2.5-3.7-7 0-4 3.2-6.8 3.2-2.8 9.9-2.8 6.4 0 9.5 2.1 3.1 2.1 4.3 6.2l-7.8 1.4q-0.4-1.8-1.9-2.8-1.3-0.9-3.9-0.9-3.3 0-4.7 0.9-0.9 0.6-0.9 1.6 0 0.9 0.8 1.5 1.1 0.9 7.7 2.4 6.6 1.4 9.2 3.6 2.6 2.2 2.6 6.1 0 4.3-3.6 7.4-3.6 3.1-10.6 3.1-6.3 0-10.1-2.6-3.7-2.6-4.8-7zm60.9 8.9h-8.1v-43h13l7.8 29.3 7.7-29.3h13v43h-8v-33.8l-8.6 33.8h-8.3l-8.5-33.8zm48.2-21.7l-7.5-1.3q1.2-4.5 4.3-6.7 3.1-2.2 9.2-2.2 5.5 0 8.2 1.4 2.7 1.2 3.7 3.3 1.2 2 1.2 7.3l-0.1 9.6q0 4.1 0.4 6.1 0.4 1.9 1.4 4.2h-8.1q-0.3-0.9-0.8-2.5-0.2-0.7-0.3-0.9-2.1 2-4.5 3-2.4 1.1-5.1 1.1-4.8 0-7.6-2.7-2.8-2.6-2.8-6.5 0-2.7 1.3-4.7 1.3-2.1 3.5-3.2 2.3-1.1 6.6-1.9 5.7-1.1 8-2v-0.9q0-2.3-1.2-3.3-1.2-1.1-4.4-1.1-2.2 0-3.5 0.9-1.2 0.9-1.9 3zm11 8.4v-1.7q-1.6 0.5-5 1.3-3.5 0.7-4.5 1.4-1.6 1.2-1.6 2.9 0 1.7 1.3 3 1.2 1.3 3.2 1.3 2.3 0 4.3-1.5 1.5-1.1 2-2.7 0.3-1.1 0.3-4zm15.6 25.1v-43h7.6v4.6q1.5-2.3 4.1-3.8 2.5-1.5 5.6-1.5 5.5 0 9.2 4.3 3.8 4.2 3.8 11.8 0 7.8-3.8 12.2-3.8 4.3-9.2 4.3-2.6 0-4.7-1.1-2.1-1-4.4-3.5v15.7zm8.1-27.9q0 5.2 2.1 7.7 2.1 2.5 5.1 2.5 2.9 0 4.8-2.3 1.9-2.3 1.9-7.5 0-4.9-2-7.3-2-2.4-4.9-2.4-3 0-5 2.4-2 2.3-2 6.9z"/>
</svg>