<svg version="1.2" xmlns="http://www.w3.org/2000/svg" viewBox="0 0 500 500" width="500" height="500">
	<style>
		.s0 { fill: #000000 } 
		.s1 { fill: #1a7dc9 } 
		.s2 { fill: #ffffff } 
		.s3 { fill: #060b0f } 
	</style>
	<g id="logo full">
		<path id="AEDES MAP" class="s0" aria-label="AEDES
MAP"  d="m116.3 317.8l30.1 75.2h-16.5l-6.6-17.1h-30l-6.2 17.1h-16.1l29.3-75.2zm-18.4 45.5h20.5l-10.3-27.9zm113.8 29.7h-57.2v-75.2h55.8v12.8h-40.6v16.6h37.8v12.7h-37.8v20.4h42zm12.8 0v-75.1h27.7q9.4 0 14.3 1.4 6.6 2 11.4 6.9 4.7 5 7.1 12.2 2.5 7.2 2.5 17.8 0 9.3-2.3 16-2.8 8.2-8.1 13.3-3.9 3.8-10.6 6-5 1.5-13.5 1.5zm22-62.4h-6.8v49.8h11.4q6.3 0 9.1-0.7 3.7-1 6.1-3.2 2.5-2.2 4-7.2 1.6-5.1 1.6-13.8 0-8.7-1.6-13.4-1.5-4.6-4.3-7.2-2.7-2.7-7-3.6-3.2-0.7-12.5-0.7zm111.3 62.4h-57.2v-75.1h55.7v12.7h-40.5v16.7h37.7v12.6h-37.7v20.5h42zm9-24.5l14.7-1.4q1.4 7.4 5.4 10.9 4.1 3.5 11 3.5 7.4 0 11-3.1 3.8-3.1 3.8-7.3 0-2.6-1.6-4.5-1.5-1.9-5.4-3.3-2.7-0.9-12.2-3.2-12.2-3.1-17.1-7.5-6.9-6.2-6.9-15.1 0-5.7 3.2-10.7 3.3-5 9.4-7.6 6.1-2.7 14.8-2.7 14.2 0 21.3 6.2 7.2 6.2 7.5 16.6l-15.2 0.7q-0.9-5.8-4.2-8.3-3.1-2.6-9.6-2.6-6.6 0-10.3 2.7-2.4 1.8-2.4 4.7 0 2.6 2.2 4.5 2.9 2.5 14 5.1 11.1 2.6 16.3 5.4 5.4 2.8 8.3 7.6 3.1 4.9 3.1 12 0 6.5-3.6 12.1-3.6 5.6-10.2 8.4-6.5 2.7-16.3 2.7-14.3 0-21.9-6.5-7.7-6.7-9.1-19.3z"/>
		<path id="AEDES MAP" class="s1" aria-label="AEDES
MAP"  d="m157.5 487h-14.1v-75.2h22.7l13.7 51.3 13.5-51.3h22.7v75.2h-14.1v-59.2l-14.9 59.2h-14.6l-14.9-59.2zm110.8-75.1l30.1 75.1h-16.5l-6.6-17h-30l-6.2 17h-16.1l29.3-75.1zm-18.4 45.4h20.5l-10.3-27.9zm71.8 29.7h-15.2v-75.1h24.4q13.8 0 18 1.1 6.5 1.7 10.9 7.4 4.3 5.6 4.3 14.6 0 6.9-2.5 11.6-2.5 4.8-6.4 7.5-3.8 2.6-7.8 3.5-5.5 1.1-15.8 1.1h-9.9zm7.4-62.5h-7.4v21.4h8.3q9 0 12-1.2 3-1.2 4.7-3.7 1.8-2.5 1.8-5.8 0-4.1-2.4-6.8-2.4-2.7-6.1-3.3-2.7-0.6-10.9-0.6z"/>
		<path id="Shape 1 copy" class="s1" d="m358.5 122.15c0 49.69-68.55 138.15-98.61 174.65-7.21 8.7-20.57 8.7-27.78 0-30.06-36.5-98.61-124.96-98.61-174.65 0-60.26 50.39-109.15 112.5-109.15 62.11 0 112.5 48.89 112.5 109.15z"/>
		<path id="Shape 2 copy" fill-rule="evenodd" class="s2" d="m246 214.6c-48.39 0-87.5-39.11-87.5-87.5 0-48.39 39.11-87.5 87.5-87.5 48.39 0 87.5 39.11 87.5 87.5 0 48.39-39.11 87.5-87.5 87.5z"/>
		<path id="Path 0 copy" class="s3" d="m244.98 52.61c-0.32 0.26-0.53 7.07-0.47 15.14l0.12 14.66c-3.2 4.8-4.13 6.89-4.13 7.74 0 0.85 0.62 2.55 1.38 3.78 0.75 1.23 1.38 2.62 1.39 3.09 0.01 0.47-1.52 2.25-3.41 3.95-1.88 1.71-3.44 3.64-3.46 4.3-0.01 0.66-0.41 1.21-0.88 1.22-0.48 0-1.17-0.31-1.55-0.69-0.38-0.39-1.34-1.09-2.14-1.56-0.8-0.47-2.74-1.55-4.3-2.41-2.48-1.35-2.92-1.95-3.49-4.81-0.36-1.79-1.17-5.74-1.81-8.76-0.65-3.03-1.62-6.59-2.16-7.91-0.55-1.32-1.81-4.11-2.79-6.19-0.99-2.08-3.1-5.79-4.7-8.25-1.59-2.46-4.62-6.09-6.74-8.08-3.25-3.05-4.01-3.47-4.93-2.75-0.97 0.76-0.74 1.19 1.9 3.61 1.65 1.52 3.97 4.15 5.15 5.85 1.18 1.7 3.66 6.03 5.51 9.62 1.85 3.59 3.78 7.77 4.29 9.28 0.5 1.52 1.14 5.23 1.41 8.25 0.34 3.77 1.04 6.59 2.24 8.94 1.51 2.98 2.56 3.92 7.84 7.06 3.35 2 6.79 4.24 7.64 4.99 0.85 0.75 1.55 1.82 1.55 2.39 0 0.57-0.54 1.18-1.21 1.35-0.66 0.18-2.44-0.01-3.95-0.41-1.51-0.4-5.22-1.3-8.25-1.99-3.02-0.7-7.66-1.73-10.31-2.3-2.65-0.57-8.06-1.52-12.03-2.1-3.97-0.59-9.85-1.07-13.06-1.07-3.22 0-7.7 0.31-9.97 0.69-2.27 0.39-4.9 1.09-5.85 1.55-1.23 0.61-1.77 1.48-1.89 3.08-0.09 1.23 0.41 3.24 1.12 4.46 0.7 1.23 2.48 3.01 3.95 3.95 1.47 0.95 4.21 2.49 6.1 3.42 3.34 1.66 3.89 1.71 18.22 1.73 13.38 0.01 15.34-0.14 20.63-1.59 3.21-0.88 7.23-2.04 8.94-2.58 1.7-0.54 3.63-0.98 4.29-0.98 0.66 0.01 1.4 0.39 1.63 0.87 0.24 0.47 0 1.55-0.51 2.4-0.52 0.85-1.56 1.68-2.32 1.86-0.76 0.18-3.18 1.34-5.38 2.58-2.21 1.25-4.68 2.62-5.5 3.05-0.82 0.43-3.05 2.29-4.96 4.13-1.9 1.83-4.11 4.73-4.89 6.43-1.05 2.25-1.52 4.96-1.75 9.97-0.25 5.56-0.65 7.59-2.11 10.65-0.99 2.08-2.36 4.41-3.04 5.18-0.69 0.77-3.27 3.09-5.74 5.16-2.47 2.07-5.33 4.38-6.36 5.13-1.03 0.76-1.87 1.77-1.87 2.24 0 0.47 0.16 0.86 0.35 0.86 0.19 0 1.19-0.53 2.23-1.19 1.04-0.65 3.13-2.12 4.64-3.26 1.52-1.15 2.91-2.24 3.1-2.44 0.19-0.19 1.42-1.25 2.75-2.34 1.32-1.1 3.63-3.57 5.13-5.49 1.5-1.93 3.16-4.89 3.7-6.6 0.53-1.7 1.16-6.09 1.39-9.75 0.42-6.52 0.49-6.73 2.97-9.29 1.4-1.43 3.72-3.47 5.16-4.52 1.44-1.06 4.78-3.29 7.43-4.97 2.65-1.68 5.35-3.07 6.01-3.08 0.67 0 1.21 0.3 1.21 0.68 0 0.38-1.21 2.31-2.68 4.29-1.47 1.99-4.36 6.55-6.43 10.14-2.07 3.6-4.25 8.39-4.86 10.66-0.62 2.37-1.22 8.08-1.39 13.41-0.23 7.19-0.64 10.28-1.82 13.75-0.83 2.46-2.05 5.55-2.7 6.87-0.64 1.33-1.62 3.18-2.16 4.13-0.55 0.94-2 3.03-3.23 4.64-1.23 1.61-2.23 3.07-2.23 3.26 0 0.19 0.64 0.35 1.42 0.35 0.78 0 1.8-0.39 2.26-0.86 0.46-0.47 1.49-1.79 2.29-2.92 0.8-1.14 2.72-4.62 4.27-7.74 1.55-3.12 3.15-6.98 3.56-8.59 0.41-1.61 1.01-6.79 1.34-11.52 0.32-4.72 0.86-9.98 1.19-11.69 0.33-1.7 1.48-4.64 2.55-6.53 1.08-1.89 2.3-4.05 2.73-4.81 0.42-0.76 2.31-3.98 4.19-7.16 1.88-3.18 3.81-5.96 4.3-6.18 0.49-0.23 1.21-0.1 1.62 0.28 0.51 0.48 0.14 2.84-1.23 7.9-1.61 5.96-1.99 8.91-2.18 16.85-0.21 8.92-0.1 10.02 1.6 15.12 1 3.03 2.34 6.37 2.97 7.43 0.63 1.05 1.77 2.1 2.52 2.31 0.76 0.22 1.69 0.24 2.07 0.06 0.37-0.19 1.61-2.78 2.75-5.76 1.99-5.22 2.06-5.81 2.06-16.76 0-9.71-0.22-12.05-1.49-16.16-0.82-2.64-1.83-5.96-2.24-7.38-0.63-2.2-0.56-2.74 0.46-3.63 1.08-0.94 1.31-0.93 2.24 0.11 0.56 0.64 1.34 1.71 1.72 2.38 0.37 0.67 2.22 3.79 4.1 6.93 1.88 3.15 4 6.96 4.71 8.47 0.7 1.52 1.72 4.38 2.25 6.36 0.53 1.99 0.97 5.7 0.97 8.25 0 2.56 0.34 6.65 0.75 9.11 0.41 2.46 1.53 6.48 2.49 8.94 0.95 2.46 2.4 5.71 3.21 7.22 0.81 1.51 2.55 4.37 3.87 6.36 1.71 2.59 2.84 3.61 3.94 3.61 0.85 0 1.55-0.31 1.55-0.69 0-0.38-0.71-1.54-1.57-2.58-0.86-1.04-2.34-3.13-3.28-4.64-0.95-1.51-2.39-4.14-3.21-5.84-0.82-1.7-2.01-4.64-2.64-6.53-0.69-2.06-1.4-7.58-1.78-13.75-0.36-5.95-1.1-11.77-1.75-13.75-0.62-1.89-1.85-4.83-2.75-6.54-0.89-1.7-2-3.7-2.46-4.44-0.46-0.74-2.23-3.49-3.93-6.11-1.71-2.62-3.33-4.87-3.61-5.01-0.29-0.14-0.52-0.87-0.52-1.62 0-0.76 0.39-1.39 0.86-1.39 0.47-0.01 2.85 1.3 5.28 2.92 2.43 1.61 4.9 3.25 5.5 3.62 0.59 0.38 3.01 2.62 5.38 4.99 2.36 2.36 4.43 4.99 4.6 5.84 0.16 0.85 0.77 4.49 1.35 8.08 0.64 3.94 1.8 8.03 2.94 10.31 1.15 2.31 4.04 5.92 7.42 9.28 3.05 3.03 6.78 6.38 8.28 7.45 1.5 1.07 3.2 1.83 3.77 1.69 0.67-0.17-1.71-2.98-6.92-8.14-6.94-6.87-8.14-8.4-9.41-12-0.8-2.27-1.79-5.98-2.19-8.25-0.41-2.27-0.74-4.97-0.74-6.01 0-1.04-0.68-3.36-1.52-5.16-0.83-1.79-3.08-4.77-4.98-6.6-1.91-1.84-4.13-3.7-4.94-4.13-0.81-0.43-4.14-2.33-7.4-4.22-3.26-1.89-6.06-3.75-6.22-4.13-0.16-0.37 0.12-1.3 0.64-2.06 0.92-1.35 1-1.35 5.29-0.15 2.39 0.68 6.67 1.87 9.51 2.66 2.84 0.79 7.17 1.74 9.63 2.11 2.45 0.37 9.26 0.53 15.12 0.35 9.92-0.31 10.94-0.46 14.78-2.28 2.27-1.07 5.43-3.2 7.03-4.73 2.12-2.02 2.91-3.33 2.93-4.83 0.02-1.14-0.36-2.62-0.84-3.29-0.48-0.67-2.72-1.73-4.99-2.35-2.93-0.8-7.02-1.13-14.1-1.14-7.33-0.01-12.24 0.39-18.56 1.52-4.73 0.84-8.75 1.66-8.94 1.81-0.19 0.16-2.2 0.63-4.47 1.04-2.26 0.42-6.05 1.44-8.4 2.27-4.09 1.44-4.34 1.46-5.5 0.3-1.17-1.16-1.15-1.28 0.5-2.78 0.94-0.86 3.19-2.56 4.98-3.77 1.8-1.22 3.42-2.21 3.61-2.21 0.19 0 1.46-1 2.83-2.23 1.37-1.23 3.2-3.78 4.07-5.67 0.87-1.89 1.92-5.92 2.34-8.94 0.42-3.03 1.43-7.36 2.24-9.63 0.81-2.27 2.74-6.34 4.28-9.05 1.54-2.71 4.51-7.11 6.59-9.78 2.07-2.68 4.32-5.02 4.98-5.22 0.66-0.19 1.33-0.74 1.49-1.21 0.15-0.47 0.03-1.33-0.29-1.89-0.5-0.91-0.76-0.9-2.17 0.09-0.89 0.61-2.57 2-3.74 3.09-1.17 1.09-3.22 3.37-4.55 5.07-1.34 1.7-3.64 5.26-5.12 7.9-1.48 2.65-3.1 5.9-3.59 7.22-0.5 1.33-1.15 3.03-1.46 3.78-0.3 0.76-1.35 4.32-2.33 7.91-0.98 3.59-1.78 7.46-1.77 8.59 0 1.14-0.39 2.57-0.87 3.18-0.47 0.62-2.95 2.24-5.51 3.61l-4.64 2.49c-1.08-2.39-2.78-4.25-4.48-5.67-1.69-1.41-3.08-3.04-3.08-3.61 0-0.56 0.62-2.11 1.38-3.43 0.75-1.33 1.37-2.95 1.38-3.61 0.01-0.66-0.92-2.68-2.06-4.47l-2.07-3.27c-0.29-24.69-0.6-29.87-1.08-30.03-0.41-0.14-1-0.03-1.32 0.23z"/>
	</g>
</svg>