<?xml version="1.0" encoding="UTF-8"?>
<svg version="1.1" xmlns="http://www.w3.org/2000/svg" width="749" height="222">
<path d="M0 0 C247.17 0 494.34 0 749 0 C749 73.26 749 146.52 749 222 C501.83 222 254.66 222 0 222 C0 148.74 0 75.48 0 0 Z " fill="#FAFBFB" transform="translate(0,0)"/>
<path d="M0 0 C18.04944953 13.43284115 31.01461536 29.92431641 36.875 51.8125 C37.15102051 52.83089966 37.15102051 52.83089966 37.43261719 53.86987305 C41.18561622 68.91699085 39.75143115 85.23117145 34.875 99.8125 C34.51277344 100.92625 34.15054688 102.04 33.77734375 103.1875 C28.10496799 119.18552248 18.42000671 131.77044025 7.875 144.8125 C6.73945248 146.2277596 5.60403218 147.64312129 4.46875 149.05859375 C-1.82162222 156.87181991 -8.23454544 164.57752654 -14.75244141 172.20166016 C-16.15818568 173.85144684 -17.55427109 175.50904745 -18.94921875 177.16796875 C-24.5216154 183.77149291 -30.23004896 190.24994563 -36.0625 196.625 C-36.68930664 197.32536377 -37.31611328 198.02572754 -37.96191406 198.74731445 C-42.37319585 203.50919704 -42.37319585 203.50919704 -45.85546875 204.9140625 C-48.62653272 204.79005619 -49.49245963 204.26012937 -51.5 202.375 C-52.40298828 201.52808594 -52.40298828 201.52808594 -53.32421875 200.6640625 C-55.67028894 198.25183415 -57.88329619 195.7548893 -60.0625 193.19140625 C-62.57677139 190.29142278 -65.19412726 187.49289936 -67.8125 184.6875 C-73.60651558 178.45051965 -79.16611531 172.03429029 -84.66357422 165.53564453 C-86.09324617 163.84994045 -87.53161476 162.17208225 -88.97265625 160.49609375 C-94.84060984 153.65254159 -100.49374865 146.67996016 -105.89111328 139.45849609 C-106.71199605 138.36344432 -107.53849213 137.27257751 -108.37060547 136.18603516 C-125.30171784 114.04534975 -136.20529453 88.87437269 -132.85693359 60.54443359 C-129.26598469 38.09973317 -116.35385023 17.15520551 -98.28369141 3.41210938 C-69.37237487 -17.14116829 -30.15129812 -20.03695169 0 0 Z " fill="#2B73BB" transform="translate(134.125,14.1875)"/>
<path d="M0 0 C1.36898619 1.14924118 2.72434248 2.31500509 4.0625 3.5 C4.66320312 3.99628906 5.26390625 4.49257813 5.8828125 5.00390625 C15.22528984 13.36186243 22.26713603 27.6087387 23.26513672 40.02001953 C24.27521745 60.37620165 20.47207415 76.68075562 6.625 92 C0.55085063 98.45516133 -5.45914739 102.86336538 -13.9375 105.5 C-15.25332063 103.23103368 -16.56525236 100.95996813 -17.875 98.6875 C-18.24818359 98.04490234 -18.62136719 97.40230469 -19.00585938 96.74023438 C-22.22438923 91.14405183 -22.9375 87.71885023 -22.9375 81.3125 C-23.20745498 71.54442173 -27.68328574 64.48215984 -32.9375 56.5 C-27.54204627 56.5 -23.75361416 60.96799586 -19.9375 64.5 C-17.97900004 67.34298381 -17.12294658 69.60674207 -16.42578125 72.96484375 C-14.6527091 81.01707586 -11.11529789 86.02884797 -4.9375 91.5 C-2.78369621 92.75923169 -2.78369621 92.75923169 -0.9375 93.5 C-3.34752853 90.47024985 -5.40646381 87.90151517 -8.5 85.5625 C-12.16343451 82.4626708 -14.56897663 79.01824303 -15.265625 74.2578125 C-15.32234375 73.49210937 -15.3790625 72.72640625 -15.4375 71.9375 C-15.81355617 67.40180208 -16.83048313 64.98592136 -19.9375 61.5 C-23.7305024 58.54035516 -27.62472081 55.65638959 -31.9375 53.5 C-31.9375 52.51 -31.9375 51.52 -31.9375 50.5 C-28.35239851 50.9596284 -25.17751605 51.7483808 -21.8125 53.015625 C-16.93140011 54.66385958 -12.49725771 54.98319735 -7.375 54.9375 C-6.57642578 54.95748047 -5.77785156 54.97746094 -4.95507812 54.99804688 C0.64107585 54.99348603 5.54796601 54.00532588 10.0625 50.5 C11.19728935 47.37866256 11.19728935 47.37866256 11.0625 44.5 C6.30549992 42.91433331 1.4823584 43.27391054 -3.5 43.25 C-4.54736328 43.229375 -5.59472656 43.20875 -6.67382812 43.1875 C-12.82125807 43.15693478 -17.98117157 43.76385603 -23.78442383 45.83422852 C-26.93863367 46.80956928 -29.66238681 46.71359434 -32.9375 46.5 C-31.71522848 42.83318544 -30.83968077 42.68858548 -27.5625 40.875 C-23.17020074 38.05336472 -21.74745653 35.90531848 -20.4609375 30.91796875 C-20.28820312 30.12003906 -20.11546875 29.32210937 -19.9375 28.5 C-18.03884394 20.56361767 -14.92225076 14.95751803 -9.9375 8.5 C-8.93677235 7.16721272 -7.93652507 5.83406397 -6.9375 4.5 C-11.84399916 6.13549972 -14.30911485 10.17379398 -16.95166016 14.50683594 C-19.27498218 19.20411207 -20.4124755 24.48971112 -21.50708008 29.59301758 C-23.02755988 35.81370836 -23.02755988 35.81370836 -25.90625 37.98486328 C-27.8924281 38.98101202 -29.82764865 39.80872299 -31.9375 40.5 C-32.618125 39.2934375 -32.618125 39.2934375 -33.3125 38.0625 C-34.68475665 35.41143428 -34.68475665 35.41143428 -36.9375 34.5 C-36.64453125 32.44921875 -36.3515625 30.3984375 -36.05859375 28.34765625 C-36.01863281 27.73792969 -35.97867188 27.12820312 -35.9375 26.5 C-36.2675 26.17 -36.5975 25.84 -36.9375 25.5 C-37.09436249 23.94051458 -37.18826639 22.37457332 -37.25390625 20.80859375 C-37.29580078 19.86435547 -37.33769531 18.92011719 -37.38085938 17.94726562 C-37.42017578 16.95404297 -37.45949219 15.96082031 -37.5 14.9375 C-37.54318359 13.94041016 -37.58636719 12.94332031 -37.63085938 11.91601562 C-37.73730298 9.4441585 -37.83931928 6.9721969 -37.9375 4.5 C-38.5975 4.17 -39.2575 3.84 -39.9375 3.5 C-39.93226318 4.1612085 -39.92702637 4.82241699 -39.92163086 5.50366211 C-39.90092344 8.48159851 -39.88785988 11.45951982 -39.875 14.4375 C-39.86662109 15.47841797 -39.85824219 16.51933594 -39.84960938 17.59179688 C-39.84638672 18.58115234 -39.84316406 19.57050781 -39.83984375 20.58984375 C-39.83460693 21.50628662 -39.82937012 22.42272949 -39.82397461 23.36694336 C-39.9375 25.5 -39.9375 25.5 -40.9375 26.5 C-40.8356629 28.41424457 -40.8356629 28.41424457 -40.5 30.5625 C-40.314375 31.861875 -40.12875 33.16125 -39.9375 34.5 C-40.5975 34.9125 -41.2575 35.325 -41.9375 35.75 C-42.5975 36.3275 -43.2575 36.905 -43.9375 37.5 C-43.9375 38.82 -43.9375 40.14 -43.9375 41.5 C-47.87395993 39.89625707 -50.32107109 37.85439604 -52.9375 34.5 C-53.46404995 32.66404013 -53.91447292 30.8055412 -54.3125 28.9375 C-56.36936645 19.52472135 -60.87781369 11.00417602 -68.9375 5.5 C-68.57398437 5.93828125 -68.21046875 6.3765625 -67.8359375 6.828125 C-61.86333276 14.36279559 -57.39158511 22.2910734 -55.6875 31.8125 C-54.6201324 36.83966962 -53.04742456 38.72773575 -48.8125 41.625 C-47.92304687 42.14320312 -47.03359375 42.66140625 -46.1171875 43.1953125 C-43.9375 44.5 -43.9375 44.5 -42.9375 46.5 C-49.83941952 46.85699584 -55.88050668 45.81627118 -62.60546875 44.25390625 C-68.02477179 43.02773335 -73.06124604 42.36207607 -78.625 42.375 C-80.30142578 42.37113281 -80.30142578 42.37113281 -82.01171875 42.3671875 C-85.00092108 42.36953905 -85.00092108 42.36953905 -87.9375 43.5 C-88.07706727 46.87346335 -88.07706727 46.87346335 -86.9375 50.5 C-81.80387351 54.63938311 -75.96936737 55.11228658 -69.625 54.9375 C-68.37867798 54.92203125 -68.37867798 54.92203125 -67.10717773 54.90625 C-61.49041678 54.75738914 -56.40251439 54.00632923 -51.06640625 52.15625 C-48.9375 51.5 -48.9375 51.5 -44.9375 51.5 C-46.42198591 55.59117248 -48.62179167 56.67974918 -52.4375 58.5625 C-56.86138474 60.72057922 -56.86138474 60.72057922 -59.9375 64.5 C-60.36017421 67.81275431 -60.67289402 71.10003633 -60.88476562 74.43164062 C-61.40956609 79.98621188 -62.98474 82.54724 -66.9375 86.5 C-68.921875 88.109375 -68.921875 88.109375 -70.6875 89.25 C-73.94928511 91.12287638 -73.94928511 91.12287638 -74.9375 93.5 C-66.18658584 87.16585248 -66.18658584 87.16585248 -59.9375 78.5 C-59.86010162 76.77143612 -59.8000979 75.04207041 -59.75 73.3125 C-59.32063541 68.26581464 -58.25838425 65.51778466 -54.6953125 61.9375 C-48.04619565 56.5 -48.04619565 56.5 -43.9375 56.5 C-45.33106208 60.37956478 -47.20976579 63.46116445 -49.5 66.875 C-53.1484129 72.97316858 -53.49704059 77.81212659 -53.640625 84.8046875 C-54.25763955 92.48489497 -57.95078073 99.04198107 -61.9375 105.5 C-72.44869723 104.47375885 -81.11345807 95.01336521 -87.74609375 87.390625 C-98.47743302 73.23520421 -102.00702365 54.82229798 -99.65332031 37.39599609 C-96.35337079 18.62698026 -86.01673024 6.32558042 -70.9375 -4.5 C-48.97447286 -19.35118978 -20.50757064 -15.4590176 0 0 Z " fill="#F8F9F8" transform="translate(125.9375,39.5)"/>
<path d="M0 0 C0.99 1.32 1.98 2.64 3 4 C3.66 4 4.32 4 5 4 C5.33 4.66 5.66 5.32 6 6 C6.47477783 6.46148437 6.94955566 6.92296875 7.4387207 7.3984375 C9.06687247 9.06859788 9.94881372 10.54294718 10.98046875 12.625 C11.51317383 13.67651245 11.51317383 13.67651245 12.05664062 14.74926758 C12.42982422 15.49200928 12.80300781 16.23475098 13.1875 17 C16.89449998 24.18042267 21.03344771 30.61168806 26 37 C27.43751837 38.95831985 28.87501765 40.91665371 30.3125 42.875 C34.45183116 48.38223405 38.84059857 53.62977513 43.32421875 58.85546875 C45.7156828 61.64734821 48.01854966 64.50224215 50.3125 67.375 C55.18125137 73.36663457 60.47354207 78.93628302 65.765625 84.55078125 C68.18370979 87.1187873 70.55908836 89.7138263 72.875 92.375 C73.38546875 92.96152344 73.8959375 93.54804688 74.421875 94.15234375 C75.63326679 95.57063167 76.82812332 97.00305635 78.015625 98.44140625 C78.71171875 99.26511719 79.4078125 100.08882813 80.125 100.9375 C80.74632813 101.68902344 81.36765625 102.44054687 82.0078125 103.21484375 C84.40255863 105.36072411 85.79740355 105.87971469 89 106 C91.07089578 105.0694498 91.07089578 105.0694498 92.8125 103.5625 C93.41707031 103.08941406 94.02164063 102.61632812 94.64453125 102.12890625 C95.31548828 101.57009766 95.31548828 101.57009766 96 101 C95.505 102.98 95.505 102.98 95 105 C94.34 105 93.68 105 93 105 C92.34 106.65 91.68 108.3 91 110 C60.97 110 30.94 110 0 110 C0 73.7 0 37.4 0 0 Z " fill="#FAFAFA" transform="translate(0,112)"/>
<path d="M0 0 C39.75 0 39.75 0 49.8046875 9.75 C57.0357783 17.4311587 58.61362602 23.9509238 58.34375 34.46484375 C57.4648563 43.50346642 54.02743841 51.12153441 47 57 C31.96581747 66.47491889 18.89482316 64 0 64 C0 42.88 0 21.76 0 0 Z " fill="#2A71B5" transform="translate(340,46)"/>
<path d="M0 0 C5.28 0 10.56 0 16 0 C16.89203125 1.72347656 17.7840625 3.44695313 18.703125 5.22265625 C19.88534065 7.50264358 21.06763654 9.78258931 22.25 12.0625 C22.83652344 13.19623047 23.42304687 14.32996094 24.02734375 15.49804688 C26.91558737 21.06359497 29.82812786 26.59054479 33 32 C35.64310843 28.70230649 37.59186954 25.21186924 39.57421875 21.484375 C39.90291458 20.86854553 40.23161041 20.25271606 40.57026672 19.6182251 C41.61250136 17.66381222 42.65006013 15.70696149 43.6875 13.75 C44.39617636 12.41910677 45.10515751 11.0883758 45.81445312 9.7578125 C47.54707974 6.50736444 49.2733532 3.25365671 51 0 C56.28 0 61.56 0 67 0 C67 20.79 67 41.58 67 63 C62.71 63 58.42 63 54 63 C53.67 49.8 53.34 36.6 53 23 C50.36 28.28 47.72 33.56 45 39 C42.68297362 43.34442447 40.36561047 47.68276089 38 52 C35.36 52 32.72 52 30 52 C28.83023548 49.98091176 27.66426462 47.95975814 26.5 45.9375 C25.8503125 44.81214844 25.200625 43.68679687 24.53125 42.52734375 C20.92225425 36.07236524 17.48017731 29.52533246 14 23 C13.67 36.2 13.34 49.4 13 63 C8.71 63 4.42 63 0 63 C0 42.21 0 21.42 0 0 Z " fill="#2E73B5" transform="translate(548,46)"/>
<path d="M0 0 C0.99 0.33 1.98 0.66 3 1 C3.02505615 1.63091553 3.0501123 2.26183105 3.07592773 2.91186523 C3.19154137 5.75396825 3.31442316 8.59571083 3.4375 11.4375 C3.47681641 12.43072266 3.51613281 13.42394531 3.55664062 14.44726562 C3.59853516 15.39150391 3.64042969 16.33574219 3.68359375 17.30859375 C3.73858032 18.62041626 3.73858032 18.62041626 3.79467773 19.95874023 C3.78181066 21.9927402 3.78181066 21.9927402 5 23 C5.29386153 26.72224599 5.14809171 27.77786243 3 31 C3.61875 31.268125 4.2375 31.53625 4.875 31.8125 C7 33 7 33 9 36 C9.78375 35.505 10.5675 35.01 11.375 34.5 C14 33 14 33 16 33 C16.10957031 32.39414063 16.21914062 31.78828125 16.33203125 31.1640625 C18.26322859 20.95854808 20.24167238 13.06071367 27 5 C27.495 4.26523437 27.99 3.53046875 28.5 2.7734375 C28.995 2.18820313 29.49 1.60296875 30 1 C30.99 1 31.98 1 33 1 C31.53087065 4.20138635 29.6854539 6.82178776 27.5625 9.625 C23.5868491 15.23042083 21.8793067 20.7089833 20.51171875 27.3828125 C18.91263139 33.80091822 15.74846202 36.17594285 10.1796875 39.58984375 C7.88059525 40.81543531 7.88059525 40.81543531 7 43 C8.33365476 42.7098066 9.66690215 42.41774108 11 42.125 C12.11375 41.88136719 12.11375 41.88136719 13.25 41.6328125 C15.36767901 41.14550568 17.46398658 40.56467359 19.546875 39.9453125 C25.0650181 38.56059537 30.59326961 38.70871 36.25 38.75 C37.32507813 38.74226563 38.40015625 38.73453125 39.5078125 38.7265625 C40.54164062 38.72914062 41.57546875 38.73171875 42.640625 38.734375 C44.04103027 38.73775879 44.04103027 38.73775879 45.46972656 38.74121094 C48.09702651 39.00992359 49.74251504 39.66669363 52 41 C51.9375 43.75 51.9375 43.75 51 47 C48.78477632 48.78665025 46.60701585 49.76509775 44 51 C43.01 51.495 43.01 51.495 42 52 C29.60035391 52.88659369 19.50380099 51.81474481 8 47 C8 47.99 8 48.98 8 50 C8.66 50.20625 9.32 50.4125 10 50.625 C16.3455575 53.53338052 21.88276488 57.64084036 25 64 C25.17095451 65.4327616 25.29246779 66.87193772 25.375 68.3125 C25.85176898 74.74888122 29.32143187 79.49286023 33.953125 83.828125 C35.17262662 84.84933367 36.41314269 85.84634867 37.6796875 86.80859375 C38.11539063 87.20175781 38.55109375 87.59492188 39 88 C39 88.66 39 89.32 39 90 C32.93746773 88.34658211 28.84385272 83.67914022 25.37890625 78.64453125 C23.8725918 75.75565055 23.21662927 73.18532514 22.5625 70 C20.37871765 60.93231491 15.65184 57.75787487 8 53 C8.63808594 53.969375 9.27617188 54.93875 9.93359375 55.9375 C14.34476069 62.97197791 17.67928634 68.80327258 17.6875 77.25 C17.72356911 86.40253735 21.02091022 92.53136534 26 100 C26 100.99 26 101.98 26 103 C21.75468901 101.58489634 20.78194353 98.60154798 18.875 94.8125 C18.50955078 94.09070557 18.14410156 93.36891113 17.76757812 92.62524414 C15.01003547 86.81388865 14.52444626 81.97232814 14.47265625 75.54296875 C13.68821252 69.66288227 10.71001539 65.01905777 7.71484375 59.984375 C6 57 6 57 6 55 C5.34 55.66 4.68 56.32 4 57 C4.495 57.99 4.99 58.98 5.5 60 C8.37242318 67.65979515 8.37242318 78.34020485 5.5 86 C5.005 86.99 4.51 87.98 4 89 C2.109375 88.66796875 2.109375 88.66796875 0 88 C-4.62522986 80.89696842 -3.9504281 71.68659375 -2.3203125 63.6484375 C-1.6198637 61.06678334 -0.8674023 58.52992337 0 56 C-0.66 56 -1.32 56 -2 56 C-2.25652344 56.52722656 -2.51304688 57.05445313 -2.77734375 57.59765625 C-3.70487048 59.42011293 -4.68611194 61.21535302 -5.69140625 62.99609375 C-9.62218599 70.22577423 -11.49850549 75.4576994 -11.703125 83.81640625 C-12.3398385 90.64432078 -15.44903758 97.82845179 -20 103 C-20.66 103 -21.32 103 -22 103 C-20.74163277 99.01419495 -19.22917536 95.33304069 -17.4375 91.5625 C-15.34712388 86.7010201 -14.72788202 82.77947189 -14.625 77.5 C-14.36118041 69.46999137 -11.48752367 64.48633334 -7 58 C-5.9892597 56.33982476 -4.98573426 54.6751435 -4 53 C-12.22033852 57.19953238 -12.22033852 57.19953238 -18 64 C-18.33750416 66.78547736 -18.50825754 69.56372245 -18.69140625 72.36328125 C-19.52596505 79.49400515 -25.72534617 83.71744774 -30.7578125 88.2421875 C-33 90 -33 90 -35 90 C-33.54267866 86.35669665 -31.72495303 84.9069491 -28.5 82.75 C-24.63667797 79.83393481 -22.94621093 77.95078216 -22.17578125 73.1796875 C-22.04863494 71.6030733 -21.94481229 70.02451998 -21.85546875 68.4453125 C-21.41835399 61.59379276 -21.41835399 61.59379276 -19.0625 58.25 C-15.54876019 55.66847687 -11.91087685 53.46334664 -8.109375 51.33203125 C-5.8708386 50.17290967 -5.8708386 50.17290967 -5 48 C-6.29357422 48.433125 -6.29357422 48.433125 -7.61328125 48.875 C-15.11293691 51.15578229 -22.08060358 52.42568115 -29.9375 52.5 C-31.10696167 52.52707031 -31.10696167 52.52707031 -32.30004883 52.5546875 C-37.87086881 52.49766663 -42.40727465 51.24792463 -47 48 C-49.1519437 44.77208445 -49.20086443 43.71599191 -49 40 C-39.72866685 34.45927471 -25.94578721 38.81622647 -16 41 C-15.27425781 41.1959375 -14.54851562 41.391875 -13.80078125 41.59375 C-11.73470729 42.05984911 -9.86517533 42.09775292 -7.75 42.0625 C-6.5125 42.041875 -5.275 42.02125 -4 42 C-4.69867188 41.52949219 -5.39734375 41.05898437 -6.1171875 40.57421875 C-7.02726562 39.95160156 -7.93734375 39.32898438 -8.875 38.6875 C-9.77992187 38.07261719 -10.68484375 37.45773438 -11.6171875 36.82421875 C-15.17774947 34.0983459 -16.15969818 31.84218819 -16.75 27.5625 C-18.55974559 17.87753334 -23.77814886 9.50152265 -30 2 C-27 2 -27 2 -25.38671875 3.328125 C-18.2594271 11.38933763 -13.6498211 20.02459759 -12.6171875 30.8203125 C-12.21890656 33.15251385 -12.21890656 33.15251385 -10.1328125 34.1796875 C-9.42898437 34.45039062 -8.72515625 34.72109375 -8 35 C-7.01 35.66 -6.02 36.32 -5 37 C-4.896875 36.401875 -4.79375 35.80375 -4.6875 35.1875 C-4 33 -4 33 -2.375 31.6875 C-1.92125 31.130625 -1.4675 30.57375 -1 30 C-1.32326553 26.40320934 -1.32326553 26.40320934 -2 23 C-1.505 22.505 -1.505 22.505 -1 22 C-0.84285346 20.36743242 -0.74914586 18.72864662 -0.68359375 17.08984375 C-0.62075195 15.60581055 -0.62075195 15.60581055 -0.55664062 14.09179688 C-0.51732422 13.05087891 -0.47800781 12.00996094 -0.4375 10.9375 C-0.37272461 9.37032227 -0.37272461 9.37032227 -0.30664062 7.77148438 C-0.20018775 5.18113116 -0.0981724 2.59067814 0 0 Z " fill="#0C0B0A" transform="translate(86,43)"/>
<path d="M0 0 C35.17948718 0 35.17948718 0 42.9375 6.4375 C48.5938598 13.46509854 48.9038916 19.11173258 48 28 C46.46139224 33.40167132 43.79066679 36.9919069 39 40 C33.18778683 43.04023458 28.55386543 43.37850537 22.0625 43.1875 C17.5765625 43.0946875 17.5765625 43.0946875 13 43 C13 49.6 13 56.2 13 63 C8.71 63 4.42 63 0 63 C0 42.21 0 21.42 0 0 Z " fill="#2A70B3" transform="translate(698,46)"/>
<path d="M0 0 C4.62 0 9.24 0 14 0 C20.05060575 13.62840766 25.85167753 27.35313436 31.52587891 41.14181519 C32.25972981 42.92495308 32.9947597 44.7076062 33.73095703 46.48977661 C34.77496306 49.01898453 35.81404834 51.55015448 36.8515625 54.08203125 C37.16985016 54.85190369 37.48813782 55.62177612 37.81607056 56.41497803 C40 61.77035284 40 61.77035284 40 64 C35.38 64 30.76 64 26 64 C21 52.25 21 52.25 21 50 C11.76 50 2.52 50 -7 50 C-7.99 53.3 -8.98 56.6 -10 60 C-10.66 61.32 -11.32 62.64 -12 64 C-16.62 64 -21.24 64 -26 64 C-24.01443524 57.81714101 -21.77330842 51.85760771 -19.19921875 45.8984375 C-18.84036087 45.05890533 -18.48150299 44.21937317 -18.11177063 43.35440063 C-16.97370818 40.69314567 -15.8309562 38.03394136 -14.6875 35.375 C-13.18910744 31.88379362 -11.69300373 28.3916178 -10.19921875 24.8984375 C-9.65924759 23.63613312 -9.65924759 23.63613312 -9.10836792 22.34832764 C-5.95276276 14.94409527 -2.95431048 7.48675821 0 0 Z " fill="#2B72B7" transform="translate(235,46)"/>
<path d="M0 0 C4.62 0 9.24 0 14 0 C16.15573509 4.1574891 18.16174056 8.28326392 19.87011719 12.64453125 C21.95046514 17.89872168 24.12812993 23.10748007 26.328125 28.3125 C27.13557752 30.23040104 27.94286458 32.14837174 28.75 34.06640625 C30.00811141 37.05392631 31.2673151 40.04096806 32.52929688 43.02685547 C33.75711598 45.93323005 34.98049212 48.84144066 36.203125 51.75 C36.58430481 52.64887939 36.96548462 53.54775879 37.35821533 54.47387695 C37.7056781 55.30234131 38.05314087 56.13080566 38.41113281 56.984375 C38.71883606 57.71366211 39.02653931 58.44294922 39.34356689 59.19433594 C40 61 40 61 40 63 C35.05 63 30.1 63 25 63 C23.68 59.04 22.36 55.08 21 51 C12.09 51 3.18 51 -6 51 C-7.65 55.29 -9.3 59.58 -11 64 C-15.62 64 -20.24 64 -25 64 C-24.32596039 60.62980193 -23.80854539 58.21507684 -22.54467773 55.16967773 C-22.25000107 54.45319061 -21.9553244 53.73670349 -21.65171814 52.99850464 C-21.33223709 52.23458405 -21.01275604 51.47066345 -20.68359375 50.68359375 C-20.35102066 49.87793976 -20.01844757 49.07228577 -19.67579651 48.24221802 C-18.60035107 45.63897575 -17.51889215 43.03827682 -16.4375 40.4375 C-15.33808155 37.77946518 -14.24031878 35.12075093 -13.14273071 32.46195984 C-12.4224936 30.71738438 -11.70177349 28.97300824 -10.9805603 27.22883606 C-8.2781737 20.68993914 -5.61591357 14.13654667 -3 7.5625 C-2.68087646 6.76062256 -2.36175293 5.95874512 -2.03295898 5.13256836 C-1.35369705 3.4223504 -0.67651176 1.71130771 0 0 Z " fill="#2C72B4" transform="translate(649,46)"/>
<path d="M0 0 C15.18 0 30.36 0 46 0 C46 3.96 46 7.92 46 12 C35.44 12 24.88 12 14 12 C14 16.62 14 21.24 14 26 C23.24 26 32.48 26 42 26 C42 29.63 42 33.26 42 37 C32.76 37 23.52 37 14 37 C14 41.95 14 46.9 14 52 C24.56 52 35.12 52 46 52 C46 55.96 46 59.92 46 64 C30.82 64 15.64 64 0 64 C0 42.88 0 21.76 0 0 Z " fill="#3176B6" transform="translate(283,46)"/>
<path d="M0 0 C14.85 0 29.7 0 45 0 C45 3.96 45 7.92 45 12 C34.77 12 24.54 12 14 12 C14 16.62 14 21.24 14 26 C22.91 26 31.82 26 41 26 C41 29.63 41 33.26 41 37 C32.09 37 23.18 37 14 37 C14 41.95 14 46.9 14 52 C24.56 52 35.12 52 46 52 C46 55.96 46 59.92 46 64 C30.82 64 15.64 64 0 64 C0 42.88 0 21.76 0 0 Z " fill="#2A70B2" transform="translate(410,46)"/>
<path d="M0 0 C2.43826411 1.22351742 4.68791933 2.54238393 7 4 C5.18690997 7.77727089 3.0926741 11.37269822 1 15 C0.24976563 14.6390625 -0.50046875 14.278125 -1.2734375 13.90625 C-7.69161444 10.99624534 -13.86894677 8.37623076 -21 10 C-22.80940339 11.26220235 -22.80940339 11.26220235 -24 13 C-24.56518934 16.03716354 -24.56518934 16.03716354 -23 19 C-18.36293803 21.78223718 -13.05570665 22.98544612 -7.875 24.375 C-1.70045327 26.16416 2.69750136 29.48164212 7 34.1875 C9.10083483 40.09609795 8.97087124 46.58767048 6.5 52.375 C3.52563296 57.5668163 -1.47169814 60.15723271 -7 62 C-19.25089714 63.06424378 -29.89152205 62.79525259 -40 55 C-41.01953125 53.03125 -41.01953125 53.03125 -41 51 C-40.00390625 48.859375 -40.00390625 48.859375 -38.5625 46.75 C-38.08941406 46.04359375 -37.61632812 45.3371875 -37.12890625 44.609375 C-36.75636719 44.07828125 -36.38382812 43.5471875 -36 43 C-33.68221254 43.8691703 -31.45468005 44.71904204 -29.34375 46.0234375 C-23.21548622 49.68481543 -17.00939078 49.82463421 -10 49 C-9.01 48.34 -8.02 47.68 -7 47 C-6.33319632 44.04279372 -6.33319632 44.04279372 -7 41 C-11.70908071 37.38908436 -17.60871654 36.12188457 -23.23046875 34.51367188 C-28.84503579 32.77268428 -33.00108946 30.3667843 -37 26 C-39.39384843 21.31638351 -39.83234037 16.16927177 -39 11 C-36.51458906 4.54949161 -32.09538297 0.9711804 -26 -2 C-17.62544206 -4.79151931 -8.01425695 -3.34861436 0 0 Z " fill="#2C72B5" transform="translate(504,48)"/>
<path d="M0 0 C0.66 0 1.32 0 2 0 C7.5592049 9.27657222 11.5625 16.38517278 11.5625 27.42578125 C12.30762132 33.51315636 15.3511178 38.49168159 18.28515625 43.796875 C20 47 20 47 20 49 C13.06780174 52.18847468 7.06674001 52.42443402 -0.5 52.3125 C-1.58925781 52.31572266 -2.67851563 52.31894531 -3.80078125 52.32226562 C-10.4980748 52.27772498 -16.8935419 52.05322905 -23 49 C-22.38312332 45.13050085 -21.16959504 42.03332903 -19.5 38.5 C-17.56258857 34.02315665 -16.73211209 30.49264931 -16.625 25.625 C-16.27980614 16.6823215 -11.88733344 7.72603178 -6 1 C-5.34 1 -4.68 1 -4 1 C-4.89142857 7.62204082 -4.89142857 7.62204082 -5.51953125 9.80859375 C-7.18348434 17.39784323 -7.19796387 26.31435384 -3 33 C-1.515 33.495 -1.515 33.495 0 34 C3.53187425 23.40437724 3.39775397 11.26142593 -1 1 C-0.67 0.67 -0.34 0.34 0 0 Z " fill="#F4F5F5" transform="translate(90,98)"/>
<path d="M0 0 C18.37837838 0 18.37837838 0 24 4 C29.78989314 10.09462436 30.57516762 15.17274458 30.4375 23.44140625 C29.67390011 29.65247319 26.97888578 33.3592969 22.3828125 37.43359375 C15.48340718 41.86454516 8.25385089 40 0 40 C0 26.8 0 13.6 0 0 Z " fill="#F7F9F9" transform="translate(354,58)"/>
<path d="M0 0 C9.9 0 19.8 0 30 0 C30 0.33 30 0.66 30 1 C20.43 1 10.86 1 1 1 C1 21.46 1 41.92 1 63 C13.62302532 64.54608508 13.62302532 64.54608508 24 61 C25.85287502 60.92773498 27.70833878 60.9161878 29.5625 60.9375 C30.57441406 60.94652344 31.58632813 60.95554688 32.62890625 60.96484375 C33.80259766 60.98224609 33.80259766 60.98224609 35 61 C33.77992056 58.3094472 33.77992056 58.3094472 32 56 C30.68 56 29.36 56 28 56 C28 52.99472353 29.94435227 52.05564773 32 50 C33.11375 49.443125 34.2275 48.88625 35.375 48.3125 C39.3479634 46.01498254 41.72388177 43.45140066 43 39 C44.1226142 30.09322127 43.446874 24.08605865 38 17 C37.28050817 15.35544725 36.58353604 13.6975594 36 12 C38.76264289 11.40267181 41.16032769 11 44 11 C44.66 10.01 45.32 9.02 46 8 C49.27589642 9.38977424 51.01422192 10.89879192 53.125 13.75 C53.62257813 14.40484375 54.12015625 15.0596875 54.6328125 15.734375 C59.23745672 23.36492827 59.15682567 32.54837245 57.34765625 41.07421875 C54.56341649 49.64202952 50.02559153 55.67925002 42 59.875 C27.9166404 66.49973823 17.23096073 64 0 64 C0 42.88 0 21.76 0 0 Z " fill="#2C72B4" transform="translate(340,46)"/>
<path d="M0 0 C3.63593477 0.8310708 5.62894905 2.33028045 7.8125 5.25 C11.1884396 11.10447753 10.82245844 17.46602458 10 24 C8.44345946 29.38165613 5.81231024 33.0209508 1 36 C-2.3125 37.25 -2.3125 37.25 -5 38 C-5 37.34 -5 36.68 -5 36 C-6.485 35.505 -6.485 35.505 -8 35 C-8 33.35 -8 31.7 -8 30 C-11.04112998 28.47943501 -14.28197797 28.6258839 -17.625 28.4375 C-20.05875 28.293125 -22.4925 28.14875 -25 28 C-25 21.4 -25 14.8 -25 8 C-18.4 8 -11.8 8 -5 8 C-4.34 6.02 -3.68 4.04 -3 2 C-2.01 2 -1.02 2 0 2 C0 1.34 0 0.68 0 0 Z " fill="#2C71B4" transform="translate(736,50)"/>
<path d="M0 0 C4.62 0 9.24 0 14 0 C15.65192471 3.72657426 17.29672356 7.4560207 18.9375 11.1875 C19.40607422 12.24259766 19.87464844 13.29769531 20.35742188 14.38476562 C20.80537109 15.40634766 21.25332031 16.42792969 21.71484375 17.48046875 C22.12855225 18.41785889 22.54226074 19.35524902 22.96850586 20.32104492 C23.9559529 22.88560265 24.55155528 25.29431199 25 28 C23.02 27.34 21.04 26.68 19 26 C19 26.66 19 27.32 19 28 C18.34 28 17.68 28 17 28 C17 27.34 17 26.68 17 26 C16.34 26 15.68 26 15 26 C15 26.99 15 27.98 15 29 C15.66 29 16.32 29 17 29 C16.67 29.99 16.34 30.98 16 32 C15.67 31.67 15.34 31.34 15 31 C15.33 33.64 15.66 36.28 16 39 C10.06 39 4.12 39 -2 39 C-1.21875 36.78645833 -0.4375 34.57291667 0.34375 32.359375 C1.17864861 29.76587262 1.17864861 29.76587262 1 26 C1 25.34 1 24.68 1 24 C-1.9994093 25.08160141 -1.9994093 25.08160141 -5 27 C-6.43968727 30.06361777 -6.43968727 30.06361777 -7 33 C-7.66 33 -8.32 33 -9 33 C-8.34 30.03 -7.68 27.06 -7 24 C-7.66 24 -8.32 24 -9 24 C-6.41874331 15.82602049 -3.22988119 7.93359166 0 0 Z " fill="#2D74B9" transform="translate(235,46)"/>
<path d="M0 0 C4.62 0 9.24 0 14 0 C16.53634391 4.74541763 18.45734262 8.57342622 19 14 C18.01 14 17.02 14 16 14 C15.67 16.31 15.34 18.62 15 21 C14.34 20.34 13.68 19.68 13 19 C12.34 19.66 11.68 20.32 11 21 C11.48633639 25.55457886 13.37802163 29.52220012 15.16015625 33.6953125 C16 36 16 36 16 39 C10.06 39 4.12 39 -2 39 C0.875 30.9375 0.875 30.9375 1.76904297 28.44116211 C3.34549539 23.99654556 4.75553672 19.54893618 6 15 C6.66 15 7.32 15 8 15 C8 13.35 8 11.7 8 10 C6.68 10.33 5.36 10.66 4 11 C4 8.69 4 6.38 4 4 C4.66 3.67 5.32 3.34 6 3 C4.68 2.67 3.36 2.34 2 2 C1.96261719 2.61488281 1.92523437 3.22976562 1.88671875 3.86328125 C1.82097656 4.67152344 1.75523437 5.47976562 1.6875 6.3125 C1.62949219 7.11300781 1.57148437 7.91351563 1.51171875 8.73828125 C0.90506434 11.41960113 0.02904281 12.21143634 -2 14 C-2.99 15.485 -2.99 15.485 -4 17 C-4.66 17 -5.32 17 -6 17 C-4.13236819 11.27789404 -2.14710968 5.62338249 0 0 Z " fill="#2D72B6" transform="translate(649,46)"/>
<path d="M0 0 C4.96015998 0.97659276 9.97498199 1.66119039 14.9765625 2.38916016 C15.4715625 3.87416016 15.4715625 3.87416016 15.9765625 5.38916016 C6.85646978 9.64520343 -1.64362698 11.67574786 -11.7109375 11.82666016 C-12.50661133 11.84881592 -13.30228516 11.87097168 -14.12207031 11.89379883 C-19.78771339 11.87320291 -24.35588125 10.71427454 -29.0234375 7.38916016 C-31.1753812 4.16124461 -31.22430193 3.10515206 -31.0234375 -0.61083984 C-22.09531888 -5.94645359 -9.58746668 -1.98093981 0 0 Z " fill="#0C0D0F" transform="translate(68.0234375,83.61083984375)"/>
<path d="M0 0 C1.06605469 -0.00322266 2.13210937 -0.00644531 3.23046875 -0.00976562 C11.7744242 0.0493435 11.7744242 0.0493435 15.625 2.3125 C15.5625 5.0625 15.5625 5.0625 14.625 8.3125 C12.40977632 10.09915025 10.23201585 11.07759775 7.625 12.3125 C6.965 12.6425 6.305 12.9725 5.625 13.3125 C-6.77464609 14.19909369 -16.87119901 13.12724481 -28.375 8.3125 C-28.705 8.9725 -29.035 9.6325 -29.375 10.3125 C-29.705 8.0025 -30.035 5.6925 -30.375 3.3125 C-29.26125 3.374375 -28.1475 3.43625 -27 3.5 C-23.61378546 3.51696796 -21.03804415 2.95977206 -17.859375 1.8203125 C-11.87598195 -0.04542327 -6.22498633 -0.09618335 0 0 Z " fill="#0B0D0F" transform="translate(122.375,81.6875)"/>
<path d="M0 0 C3.5578125 -0.0928125 3.5578125 -0.0928125 7.1875 -0.1875 C8.29387817 -0.22846802 8.29387817 -0.22846802 9.42260742 -0.27026367 C13.83935173 -0.32573392 16.52119467 0.27164994 20 3 C22.48386059 6.72579089 22.3804212 8.58711402 22 13 C20.69193893 16.09803939 19.83485126 17.56291302 16.84375 19.12890625 C13.34401766 20.20093964 10.34164782 20.19330183 6.6875 20.125 C3.3771875 20.063125 3.3771875 20.063125 0 20 C0 13.4 0 6.8 0 0 Z " fill="#F1F5F6" transform="translate(711,58)"/>
<path d="M0 0 C9.9 0 19.8 0 30 0 C30 0.33 30 0.66 30 1 C20.43 1 10.86 1 1 1 C1 21.46 1 41.92 1 63 C13.62302532 64.54608508 13.62302532 64.54608508 24 61 C25.85287502 60.92773498 27.70833878 60.9161878 29.5625 60.9375 C30.57441406 60.94652344 31.58632813 60.95554688 32.62890625 60.96484375 C33.80259766 60.98224609 33.80259766 60.98224609 35 61 C33.77992056 58.3094472 33.77992056 58.3094472 32 56 C30.68 56 29.36 56 28 56 C28 52.99472353 29.94435227 52.05564773 32 50 C33.76886212 49.00300499 35.53805951 48.00656377 37.3125 47.01953125 C39.16756559 45.89876246 40.59625699 44.65146236 42 43 C41.7215625 43.9590625 41.7215625 43.9590625 41.4375 44.9375 C41.293125 45.618125 41.14875 46.29875 41 47 C41.33 47.33 41.66 47.66 42 48 C42.66 48 43.32 48 44 48 C44.79953138 51.28696233 45.09658936 52.71023192 44 56 C44.99 56.33 45.98 56.66 47 57 C45.48329636 57.79955001 43.96138002 58.58921388 42.4375 59.375 C41.59058594 59.81585938 40.74367188 60.25671875 39.87109375 60.7109375 C26.35022033 66.78153373 16.90707625 64 0 64 C0 42.88 0 21.76 0 0 Z " fill="#4584BE" transform="translate(340,46)"/>
<path d="M0 0 C0.99 0 1.98 0 3 0 C7.03648506 8.07297012 7.43625712 18.0568671 5.3203125 26.8125 C4.5 29 4.5 29 3 32 C1.109375 31.66796875 1.109375 31.66796875 -1 31 C-5.13983806 24.64239155 -4.63770815 17.34606666 -4 10 C-2.26315789 2.26315789 -2.26315789 2.26315789 0 0 Z " fill="#0A0B0B" transform="translate(87,100)"/>
<path d="M0 0 C5.28 0 10.56 0 16 0 C16.33 1.65 16.66 3.3 17 5 C15.68 5 14.36 5 13 5 C12.67 4.34 12.34 3.68 12 3 C9.87423218 2.53348793 9.87423218 2.53348793 7.4375 2.375 C6.61121094 2.30023438 5.78492188 2.22546875 4.93359375 2.1484375 C4.29550781 2.09945312 3.65742187 2.05046875 3 2 C2.80298829 21.67928038 3.40754029 41.33222858 4 61 C6.64 61 9.28 61 12 61 C12 61.66 12 62.32 12 63 C8.04 63 4.08 63 0 63 C0 42.21 0 21.42 0 0 Z " fill="#367AB8" transform="translate(548,46)"/>
<path d="M0 0 C14.85 0 29.7 0 45 0 C45 3.96 45 7.92 45 12 C34.77 12 24.54 12 14 12 C14 11.67 14 11.34 14 11 C22.91 10.67 31.82 10.34 41 10 C40.505 6.04 40.505 6.04 40 2 C41.32 1.67 42.64 1.34 44 1 C29.81 1 15.62 1 1 1 C1 21.46 1 41.92 1 63 C15.52 63 30.04 63 45 63 C45 59.37 45 55.74 45 52 C45.33 52 45.66 52 46 52 C46 55.96 46 59.92 46 64 C30.82 64 15.64 64 0 64 C0 42.88 0 21.76 0 0 Z " fill="#5D94C3" transform="translate(410,46)"/>
<path d="M0 0 C0.66 0 1.32 0 2 0 C3.33891561 3.28942366 4.67017703 6.58189109 6 9.875 C6.3815625 10.81214844 6.763125 11.74929687 7.15625 12.71484375 C7.5171875 13.61074219 7.878125 14.50664063 8.25 15.4296875 C8.75273437 16.67081299 8.75273437 16.67081299 9.265625 17.93701172 C10 20 10 20 10 22 C4.06 22 -1.88 22 -8 22 C-5.60309494 14.55697903 -2.84737559 7.28162848 0 0 Z " fill="#F2F6F6" transform="translate(241,63)"/>
<path d="M0 0 C2.96082171 3.47652039 4.5449593 7.35678468 6.1875 11.5625 C6.46013672 12.23474609 6.73277344 12.90699219 7.01367188 13.59960938 C8.18137285 16.54666423 9 18.80156144 9 22 C3.06 22 -2.88 22 -9 22 C-8.071875 19.298125 -7.14375 16.59625 -6.1875 13.8125 C-5.90156982 12.97050049 -5.61563965 12.12850098 -5.32104492 11.26098633 C-3.90868528 7.20701782 -2.40093693 3.59780039 0 0 Z " fill="#E9F1F3" transform="translate(656,63)"/>
<path d="M0 0 C3.125 1 3.125 1 5 2 C4.34 4.31 3.68 6.62 3 9 C2.236875 8.67 1.47375 8.34 0.6875 8 C-1.99069135 6.82563314 -1.99069135 6.82563314 -5 7 C-5 8.65 -5 10.3 -5 12 C-8 13 -8 13 -10.625 11.9375 C-13 10 -13 10 -14.0625 7.0625 C-14 4 -14 4 -12.6875 1.625 C-8.58212531 -0.85731958 -4.67958593 -0.52919388 0 0 Z " fill="#F4F7F7" transform="translate(493,57)"/>
<path d="M0 0 C1.97885999 2.96828999 3.25864997 5.77447054 4.625 9.0625 C5.07101562 10.12597656 5.51703125 11.18945312 5.9765625 12.28515625 C7 15 7 15 7 17 C2.38 17 -2.24 17 -7 17 C-7 13.6325319 -6.68568426 11.00700022 -6 7.75 C-5.814375 6.85796875 -5.62875 5.9659375 -5.4375 5.046875 C-5.2209375 4.03367187 -5.2209375 4.03367187 -5 3 C-4.34 3 -3.68 3 -3 3 C-2.67 3.66 -2.34 4.32 -2 5 C-1.34 3.35 -0.68 1.7 0 0 Z " fill="#3075B7" transform="translate(268,93)"/>
<path d="M0 0 C0.99 0 1.98 0 3 0 C3.33 2.31 3.66 4.62 4 7 C3.01 7.061875 3.01 7.061875 2 7.125 C-3.4540629 8.71576835 -7.8715187 12.30727805 -11 17 C-11.30989313 19.53952971 -11.30989313 19.53952971 -11.375 22.3125 C-12.12121475 31.34998977 -17.27842292 35.41650488 -23.7578125 41.2421875 C-26 43 -26 43 -28 43 C-26.54267866 39.35669665 -24.72495303 37.9069491 -21.5 35.75 C-17.63667797 32.83393481 -15.94621093 30.95078216 -15.17578125 26.1796875 C-15.04863494 24.6030733 -14.94481229 23.02451998 -14.85546875 21.4453125 C-14.41835399 14.59379276 -14.41835399 14.59379276 -12.0625 11.25 C-8.54876019 8.66847687 -4.91087685 6.46334664 -1.109375 4.33203125 C1.1291614 3.17290967 1.1291614 3.17290967 2 1 C1.34 0.67 0.68 0.34 0 0 Z " fill="#232322" transform="translate(79,90)"/>
<path d="M0 0 C0.33 0.66 0.66 1.32 1 2 C2.65821773 2.37309899 4.32577014 2.70700977 6 3 C7.79792975 4.79792975 7.25670277 7.38385204 7.3125 9.8125 C7.34988281 10.87082031 7.38726562 11.92914063 7.42578125 13.01953125 C6.91002237 16.62984338 5.77702546 17.73784711 3 20 C3 19.01 3 18.02 3 17 C0.59563974 13.39345961 -0.94679607 13.14547068 -5 12 C-5.1875 9.625 -5.1875 9.625 -5 7 C-4.01 6.34 -3.02 5.68 -2 5 C-0.79549696 2.44816596 -0.79549696 2.44816596 0 0 Z " fill="#2A6FB0" transform="translate(504,83)"/>
<path d="M0 0 C6.72531223 3.68259815 12.46447273 6.92894546 16 14 C16.07725568 15.35340503 16.13732669 16.70782061 16.1875 18.0625 C16.96276292 25.48116977 21.29173012 30.76207888 26.875 35.4375 C27.47054687 35.88996094 28.06609375 36.34242188 28.6796875 36.80859375 C29.11539063 37.20175781 29.55109375 37.59492188 30 38 C30 38.66 30 39.32 30 40 C23.93746773 38.34658211 19.84385272 33.67914022 16.37890625 28.64453125 C14.8725918 25.75565055 14.21662927 23.18532514 13.5625 20 C11.27316306 10.53046995 5.85477523 7.20154009 -2 2 C-1.34 1.34 -0.68 0.68 0 0 Z " fill="#29292A" transform="translate(95,93)"/>
<path d="M0 0 C8.88824866 6.53014187 13.63353535 14.81115366 15.6875 25.625 C15.85636719 26.79289062 16.02523437 27.96078125 16.19921875 29.1640625 C16.69352979 32.10350027 16.69352979 32.10350027 18.94140625 33.265625 C19.62074219 33.50796875 20.30007812 33.7503125 21 34 C22.37086915 35.29470975 23.71340837 36.62150897 25 38 C24.01 38.495 24.01 38.495 23 39 C21.125 38.109375 21.125 38.109375 19 36.75 C18.29875 36.31171875 17.5975 35.8734375 16.875 35.421875 C13.55708875 32.9057923 12.79206617 30.4924797 12.25 26.5625 C10.44025441 16.87753334 5.22185114 8.50152265 -1 1 C-0.67 0.67 -0.34 0.34 0 0 Z " fill="#1A1A1A" transform="translate(57,44)"/>
<path d="M0 0 C8.91 0 17.82 0 27 0 C26.01 0.33 25.02 0.66 24 1 C22.79117904 3.00016466 22.79117904 3.00016466 22 5 C19.20826945 5.02690104 16.41679652 5.04679053 13.625 5.0625 C12.43390625 5.07506836 12.43390625 5.07506836 11.21875 5.08789062 C5.2265625 5.11328125 5.2265625 5.11328125 3 4 C1.32345271 4.27942455 -0.34608154 4.60828247 -2 5 C-1.34 3.35 -0.68 1.7 0 0 Z " fill="#DEE8F0" transform="translate(643,96)"/>
<path d="M0 0 C17.49 0 34.98 0 53 0 C52.67 1.65 52.34 3.3 52 5 C51.27554688 4.86722656 50.55109375 4.73445312 49.8046875 4.59765625 C48.83789062 4.42105469 47.87109375 4.24445312 46.875 4.0625 C45.92367187 3.88847656 44.97234375 3.71445312 43.9921875 3.53515625 C43.00476563 3.35855469 42.01734375 3.18195313 41 3 C40.11054687 2.81695312 39.22109375 2.63390625 38.3046875 2.4453125 C33.61492435 1.8133586 28.97691702 1.81569386 24.25 1.8125 C23.3115625 1.80025391 22.373125 1.78800781 21.40625 1.77539062 C15.7904971 1.76375578 10.65235689 2.27960236 5.18261719 3.5690918 C3 4 3 4 -1 4 C-0.67 2.68 -0.34 1.36 0 0 Z " fill="#F3F5F5" transform="translate(63,0)"/>
<path d="M0 0 C0.99 0.33 1.98 0.66 3 1 C3.02505615 1.63091553 3.0501123 2.26183105 3.07592773 2.91186523 C3.19154137 5.75396825 3.31442316 8.59571083 3.4375 11.4375 C3.47681641 12.43072266 3.51613281 13.42394531 3.55664062 14.44726562 C3.59853516 15.39150391 3.64042969 16.33574219 3.68359375 17.30859375 C3.72025146 18.18314209 3.75690918 19.05769043 3.79467773 19.95874023 C3.78181066 21.9927402 3.78181066 21.9927402 5 23 C5.3125 25.3125 5.3125 25.3125 5 28 C3 30.3125 3 30.3125 1 32 C-1.05619793 29.68677733 -1.95899829 28.44076838 -2.25 25.3125 C-2 23 -2 23 -1 22 C-0.84285346 20.36743242 -0.74914586 18.72864662 -0.68359375 17.08984375 C-0.62075195 15.60581055 -0.62075195 15.60581055 -0.55664062 14.09179688 C-0.49766602 12.53041992 -0.49766602 12.53041992 -0.4375 10.9375 C-0.39431641 9.89271484 -0.35113281 8.84792969 -0.30664062 7.77148438 C-0.20018775 5.18113116 -0.0981724 2.59067814 0 0 Z " fill="#0A0A0A" transform="translate(86,43)"/>
<path d="M0 0 C0.99 0 1.98 0 3 0 C1.53087065 3.20138635 -0.3145461 5.82178776 -2.4375 8.625 C-6.44720466 14.27843451 -8.03744641 19.77284158 -9.55859375 26.453125 C-10.81294674 31.15889648 -11.9814681 33.42632508 -16.1875 36.0625 C-17.44437353 36.73509719 -18.71120198 37.39080569 -20 38 C-20.99 37.34 -21.98 36.68 -23 36 C-16.25 32 -16.25 32 -14 32 C-13.83564453 31.09121094 -13.83564453 31.09121094 -13.66796875 30.1640625 C-11.73677141 19.95854808 -9.75832762 12.06071367 -3 4 C-2.505 3.26523437 -2.01 2.53046875 -1.5 1.7734375 C-1.005 1.18820313 -0.51 0.60296875 0 0 Z " fill="#171819" transform="translate(116,44)"/>
<path d="M0 0 C0.33 0.66 0.66 1.32 1 2 C3.97 1.34 6.94 0.68 10 0 C10.33 0.66 10.66 1.32 11 2 C10.0625 4.125 10.0625 4.125 9 6 C9.66 6 10.32 6 11 6 C10.67 7.32 10.34 8.64 10 10 C7.36 10 4.72 10 2 10 C0.35 7.03 -1.3 4.06 -3 1 C-2.01 0.67 -1.02 0.34 0 0 Z " fill="#367BBC" transform="translate(576,88)"/>
<path d="M0 0 C0.33 0 0.66 0 1 0 C1 13.53 1 27.06 1 41 C0.67 41 0.34 41 0 41 C-0.33 31.76 -0.66 22.52 -1 13 C-2.32 15.31 -3.64 17.62 -5 20 C-6.24546405 17.50907189 -5.7767578 16.58919267 -5 14 C-5.33 14.66 -5.66 15.32 -6 16 C-6.66 15.67 -7.32 15.34 -8 15 C-5.36 10.05 -2.72 5.1 0 0 Z " fill="#E6F0F3" transform="translate(601,68)"/>
<path d="M0 0 C0 0.33 0 0.66 0 1 C-5.94 1 -11.88 1 -18 1 C-18 1.66 -18 2.32 -18 3 C-17.01 3.33 -16.02 3.66 -15 4 C-15.66 4 -16.32 4 -17 4 C-17 4.66 -17 5.32 -17 6 C-20.01622504 6 -22.66168112 5.81877393 -25.625 5.4375 C-30.86885214 4.8756587 -35.79158841 5.27968776 -41 6 C-29.29871586 -1.80085609 -13.39404728 -0.48153378 0 0 Z " fill="#3D7DC1" transform="translate(98,1)"/>
<path d="M0 0 C10.56 0 21.12 0 32 0 C32 3.63 32 7.26 32 11 C31.67 11 31.34 11 31 11 C31 8.36 31 5.72 31 3 C22.75 3 14.5 3 6 3 C6 2.67 6 2.34 6 2 C3.03 1.505 3.03 1.505 0 1 C0 0.67 0 0.34 0 0 Z " fill="#387DBB" transform="translate(297,98)"/>
<path d="M0 0 C0.99 0.33 1.98 0.66 3 1 C3 1.99 3 2.98 3 4 C3.66 4.33 4.32 4.66 5 5 C5.66 5.66 6.32 6.32 7 7 C6.195625 7.61875 5.39125 8.2375 4.5625 8.875 C1.96125481 10.74164041 1.96125481 10.74164041 1 13 C-0.65 12.67 -2.3 12.34 -4 12 C-4.65234375 10.265625 -4.65234375 10.265625 -5 8 C-4.00390625 5.859375 -4.00390625 5.859375 -2.5625 3.75 C-2.08941406 3.04359375 -1.61632812 2.3371875 -1.12890625 1.609375 C-0.75636719 1.07828125 -0.38382812 0.5471875 0 0 Z " fill="#256EAF" transform="translate(468,91)"/>
<path d="M0 0 C4.62 0 9.24 0 14 0 C14 0.66 14 1.32 14 2 C10.04 2 6.08 2 2 2 C1.8453125 4.1346875 1.8453125 4.1346875 1.6875 6.3125 C1.41485221 10.07503949 0.81899678 11.51510654 -2 14 C-2.99 15.485 -2.99 15.485 -4 17 C-4.66 17 -5.32 17 -6 17 C-4.13236819 11.27789404 -2.14710968 5.62338249 0 0 Z " fill="#3073B4" transform="translate(649,46)"/>
<path d="M0 0 C0.33 0 0.66 0 1 0 C1.19335938 0.9178125 1.38671875 1.835625 1.5859375 2.78125 C2.95178397 9.2183086 4.34408272 15.6310874 6 22 C5.01 22 4.02 22 3 22 C3.33 21.34 3.66 20.68 4 20 C3.34 20 2.68 20 2 20 C1.67 20.66 1.34 21.32 1 22 C-1.95629452 15.34833732 -2.08305834 6.96574709 0 0 Z " fill="#F0F3F5" transform="translate(1,96)"/>
<path d="M0 0 C2.97 0.495 2.97 0.495 6 1 C6.8125 3.1875 6.8125 3.1875 7 6 C4.6875 8.8125 4.6875 8.8125 2 11 C1.34 11 0.68 11 0 11 C-0.99 8.69 -1.98 6.38 -3 4 C-2.01 2.68 -1.02 1.36 0 0 Z " fill="#111518" transform="translate(131,82)"/>
<path d="M0 0 C2.5 2.25 2.5 2.25 5 5 C5 6.32 5 7.64 5 9 C1.37 9 -2.26 9 -6 9 C-6 7.02 -6 5.04 -6 3 C-4.02 2.01 -2.04 1.02 0 0 Z " fill="#F6F8F8" transform="translate(659,75)"/>
<path d="M0 0 C0.33 0 0.66 0 1 0 C2.43280836 11.97317087 2.40424159 20.87999055 -4.546875 31.32421875 C-5.26617187 32.15373047 -5.26617187 32.15373047 -6 33 C-6.66 33 -7.32 33 -8 33 C-6.74163277 29.01419495 -5.22917536 25.33304069 -3.4375 21.5625 C-0.37741925 14.40731118 -0.11572531 7.70099366 0 0 Z " fill="#323333" transform="translate(72,113)"/>
<path d="M0 0 C5.94572248 1.21341275 9.89656574 3.47431261 14 8 C16.12824449 11.27958987 16.2170311 13.88469367 16.125 17.75 C16.10695313 18.73484375 16.08890625 19.7196875 16.0703125 20.734375 C16.04710937 21.48203125 16.02390625 22.2296875 16 23 C15.67 23 15.34 23 15 23 C14.93941406 22.38511719 14.87882812 21.77023438 14.81640625 21.13671875 C14.73261719 20.32847656 14.64882813 19.52023438 14.5625 18.6875 C14.48128906 17.88699219 14.40007812 17.08648437 14.31640625 16.26171875 C14.04734307 13.83912821 14.04734307 13.83912821 13 11 C12.34 11 11.68 11 11 11 C10.67 9.68 10.34 8.36 10 7 C7.36 6.67 4.72 6.34 2 6 C2 5.01 2 4.02 2 3 C1.01 3.495 1.01 3.495 0 4 C0 2.68 0 1.36 0 0 Z " fill="#3778BA" transform="translate(496,73)"/>
<path d="M0 0 C0 3.63 0 7.26 0 11 C-10.23 11 -20.46 11 -31 11 C-31 10.67 -31 10.34 -31 10 C-22.09 9.67 -13.18 9.34 -4 9 C-4.33 6.36 -4.66 3.72 -5 1 C-1.125 0 -1.125 0 0 0 Z " fill="#4987BF" transform="translate(455,47)"/>
<path d="M0 0 C0.66 0.33 1.32 0.66 2 1 C1.690625 1.56589844 1.38125 2.13179687 1.0625 2.71484375 C-0.32698319 5.70325429 -0.82892576 8.65672302 -1.4375 11.87890625 C-2 14 -2 14 -4 17 C-5.32 17 -6.64 17 -8 17 C-7.68028731 10.92545895 -4.32686711 4.32686711 0 0 Z " fill="#256DB7" transform="translate(17,38)"/>
<path d="M0 0 C0.66 0 1.32 0 2 0 C2.06316406 0.65484375 2.12632813 1.3096875 2.19140625 1.984375 C3.1640788 9.23334513 5.58693814 14.33892446 9.5390625 20.46875 C11 23 11 23 11 26 C7.25531866 24.75177289 6.65969931 23.06360005 4.890625 19.67773438 C4.53484375 18.95908203 4.1790625 18.24042969 3.8125 17.5 C3.45027344 16.77619141 3.08804688 16.05238281 2.71484375 15.30664062 C0.16687753 9.95686945 -0.85154537 5.96081756 0 0 Z " fill="#1F1F1E" transform="translate(101,120)"/>
<path d="M0 0 C-1.41668162 3.61025316 -2.851395 4.81805825 -6.375 6.375 C-7.14585938 6.73335938 -7.91671875 7.09171875 -8.7109375 7.4609375 C-11 8 -11 8 -13.2890625 7.1015625 C-13.85367188 6.73804687 -14.41828125 6.37453125 -15 6 C-15 5.01 -15 4.02 -15 3 C-13.25183142 2.49363393 -11.50137737 1.99515381 -9.75 1.5 C-8.77546875 1.2215625 -7.8009375 0.943125 -6.796875 0.65625 C-4 0 -4 0 0 0 Z " fill="#EEECED" transform="translate(81,91)"/>
<path d="M0 0 C6.62322849 4.86604542 10.37887197 10.64767927 14 18 C14 18.66 14 19.32 14 20 C13.01 20.33 12.02 20.66 11 21 C10.63648437 20.2265625 10.27296875 19.453125 9.8984375 18.65625 C6.80239672 12.2418886 3.55159584 6.48773967 -1 1 C-0.67 0.67 -0.34 0.34 0 0 Z " fill="#1C1D1E" transform="translate(57,44)"/>
<path d="M0 0 C6.04221913 3.30855494 11.13151463 6.19727195 15 12 C15 12.99 15 13.98 15 15 C12 14 12 14 10.4375 11.875 C6.91140634 7.71601773 2.52243638 4.99481951 -2 2 C-1.34 1.34 -0.68 0.68 0 0 Z " fill="#121211" transform="translate(95,93)"/>
<path d="M0 0 C0.66 0 1.32 0 2 0 C2.33 0.66 2.66 1.32 3 2 C3.66 1.34 4.32 0.68 5 0 C5.99 2.97 6.98 5.94 8 9 C6.68 9.99 5.36 10.98 4 12 C3.67 10.68 3.34 9.36 3 8 C2.34 8 1.68 8 1 8 C0.67 9.32 0.34 10.64 0 12 C0 8.04 0 4.08 0 0 Z " fill="#256DAD" transform="translate(385,72)"/>
<path d="M0 0 C0.99 0.33 1.98 0.66 3 1 C3 7.6 3 14.2 3 21 C2.01 21 1.02 21 0 21 C0 14.07 0 7.14 0 0 Z " fill="#5B5B5B" transform="translate(86,43)"/>
<path d="M0 0 C0.66 0 1.32 0 2 0 C2.99 2.97 3.98 5.94 5 9 C3.68 8.67 2.36 8.34 1 8 C1 8.66 1 9.32 1 10 C-0.65 10.66 -2.3 11.32 -4 12 C-3.52309796 10.37433394 -3.04340334 8.74948689 -2.5625 7.125 C-2.29566406 6.22007813 -2.02882812 5.31515625 -1.75390625 4.3828125 C-1 2 -1 2 0 0 Z " fill="#E2ECF2" transform="translate(241,63)"/>
<path d="M0 0 C1.0528418 0.01353516 1.0528418 0.01353516 2.12695312 0.02734375 C3.85561525 0.05086296 5.58410145 0.08673287 7.3125 0.125 C4.55373196 1.57632468 1.84324391 2.67845428 -1.125 3.625 C-4.36719863 4.67898206 -7.54131297 5.80563125 -10.6875 7.125 C-10.875 4.75 -10.875 4.75 -10.6875 2.125 C-7.00662647 -0.32891569 -4.24394412 -0.10302759 0 0 Z " fill="#3B7DC4" transform="translate(67.6875,26.875)"/>
<path d="M0 0 C3.3 0.33 6.6 0.66 10 1 C9.67 1.66 9.34 2.32 9 3 C8.01 3 7.02 3 6 3 C6.33 3.66 6.66 4.32 7 5 C2.07872966 5.16682272 -1.50343896 5.24828052 -6 3 C-6 2.67 -6 2.34 -6 2 C-4.02 2 -2.04 2 0 2 C0 1.34 0 0.68 0 0 Z " fill="#3279B8" transform="translate(479,105)"/>
<path d="M0 0 C0.99 0.33 1.98 0.66 3 1 C3.33 2.98 3.66 4.96 4 7 C4.99 7 5.98 7 7 7 C6.34 8.65 5.68 10.3 5 12 C2.59424393 9.81482901 1.20464419 7.74080329 -0.1875 4.8125 C-0.53167969 4.09707031 -0.87585938 3.38164063 -1.23046875 2.64453125 C-1.48441406 2.10183594 -1.73835937 1.55914062 -2 1 C-1.34 0.67 -0.68 0.34 0 0 Z " fill="#EEF4F5" transform="translate(577,67)"/>
<path d="M0 0 C6.6 0 13.2 0 20 0 C13.88612125 4.07591917 6.94777165 3.04538231 0 2 C0 1.34 0 0.68 0 0 Z " fill="#226CB8" transform="translate(80,2)"/>
<path d="M0 0 C0.33 0.99 0.66 1.98 1 3 C0.01 3.33 -0.98 3.66 -2 4 C-3.21869929 6.50447516 -3.21869929 6.50447516 -4 9 C-6.64 9 -9.28 9 -12 9 C-12.33 8.34 -12.66 7.68 -13 7 C-12.01 7 -11.02 7 -10 7 C-9.67 6.34 -9.34 5.68 -9 5 C-8.236875 4.87625 -7.47375 4.7525 -6.6875 4.625 C-3.40472026 3.86156285 -2.1786618 2.50142651 0 0 Z " fill="#F2F5F5" transform="translate(95,213)"/>
<path d="M0 0 C2.625 0.9375 2.625 0.9375 5 2 C4.814375 2.721875 4.62875 3.44375 4.4375 4.1875 C3.98004693 7.12826973 4.26483643 9.14103058 5 12 C2 11 2 11 0.83203125 9.22265625 C0.49558594 8.50980469 0.15914062 7.79695313 -0.1875 7.0625 C-0.53167969 6.35222656 -0.87585938 5.64195313 -1.23046875 4.91015625 C-2 3 -2 3 -2 1 C-1.34 0.67 -0.68 0.34 0 0 Z " fill="#266AB3" transform="translate(11,120)"/>
<path d="M0 0 C0 4.20564328 -2.0995339 5.89943032 -4.6875 9.0625 C-6.28042407 11.02392507 -6.28042407 11.02392507 -6 14 C-7.98 14 -9.96 14 -12 14 C-8 9.33333333 -4 4.66666667 0 0 Z " fill="#ECF1F2" transform="translate(121,184)"/>
<path d="M0 0 C0.33 0.99 0.66 1.98 1 3 C-0.43359375 5.04296875 -0.43359375 5.04296875 -2.4375 7.1875 C-3.09621094 7.90292969 -3.75492188 8.61835937 -4.43359375 9.35546875 C-4.95050781 9.89816406 -5.46742187 10.44085938 -6 11 C-6.66 10.67 -7.32 10.34 -8 10 C-7.67 8.02 -7.34 6.04 -7 4 C-6.01 3.67 -5.02 3.34 -4 3 C-3.67 2.34 -3.34 1.68 -3 1 C-2.01 0.67 -1.02 0.34 0 0 Z " fill="#EDF2F5" transform="translate(26,24)"/>
<path d="M0 0 C1.65 0.33 3.3 0.66 5 1 C5 2.32 5 3.64 5 5 C1.7 5 -1.6 5 -5 5 C-5 4.34 -5 3.68 -5 3 C-3.35 2.67 -1.7 2.34 0 2 C0 1.34 0 0.68 0 0 Z " fill="#1F6DB3" transform="translate(630,104)"/>
<path d="M0 0 C5 2 5 2 6.3125 4.9375 C7 8 7 8 7 11 C6.34 11.66 5.68 12.32 5 13 C3.35 8.71 1.7 4.42 0 0 Z " fill="#EFF5F2" transform="translate(269,95)"/>
<path d="M0 0 C2.97 0 5.94 0 9 0 C9.33 0.99 9.66 1.98 10 3 C10.66 3.33 11.32 3.66 12 4 C12 4.66 12 5.32 12 6 C7.01208429 5.52496041 3.9767259 4.0298864 0 1 C0 0.67 0 0.34 0 0 Z " fill="#347AB5" transform="translate(470,76)"/>
<path d="M0 0 C0.66 0 1.32 0 2 0 C2.625 1.875 2.625 1.875 3 4 C2.34 4.66 1.68 5.32 1 6 C1 6.99 1 7.98 1 9 C0.01 9.495 0.01 9.495 -1 10 C-2.13350534 12.01669827 -2.13350534 12.01669827 -3 14 C-4.25955231 10.22134307 -3.48087189 8.96588214 -2.0625 5.3125 C-1.68222656 4.31863281 -1.30195313 3.32476562 -0.91015625 2.30078125 C-0.60980469 1.54152344 -0.30945313 0.78226562 0 0 Z " fill="#236CB4" transform="translate(149,100)"/>
<path d="M0 0 C4.62 0 9.24 0 14 0 C14 0.66 14 1.32 14 2 C10.04 2 6.08 2 2 2 C1.67 3.32 1.34 4.64 1 6 C0.67 6 0.34 6 0 6 C0 4.02 0 2.04 0 0 Z " fill="#3B7BBB" transform="translate(649,46)"/>
<path d="M0 0 C0.66 0 1.32 0 2 0 C1.52583422 4.97874064 0.0900669 8.06718758 -3 12 C-3.66 12 -4.32 12 -5 12 C-3.68938409 7.76570244 -2.05643741 3.92592596 0 0 Z " fill="#121313" transform="translate(69,134)"/>
<path d="M0 0 C2.97 0.495 2.97 0.495 6 1 C5.195625 1.763125 4.39125 2.52625 3.5625 3.3125 C0.83200976 5.79430898 0.83200976 5.79430898 0 9 C-1.32 8.34 -2.64 7.68 -4 7 C-4 5.68 -4 4.36 -4 3 C-2.68 2.34 -1.36 1.68 0 1 C0 0.67 0 0.34 0 0 Z " fill="#FAFDFC" transform="translate(484,59)"/>
<path d="M0 0 C3.28788824 3.11016455 5.83735988 6.01618925 8 10 C6.35 10 4.7 10 3 10 C1.5783681 6.6828589 0.60990891 3.55780196 0 0 Z " fill="#EEF1F4" transform="translate(23,147)"/>
<path d="M0 0 C4.29 0.33 8.58 0.66 13 1 C13 1.66 13 2.32 13 3 C8.38 3 3.76 3 -1 3 C-0.67 2.01 -0.34 1.02 0 0 Z " fill="#4F8BC3" transform="translate(262,107)"/>
<path d="M0 0 C1.98 0.66 3.96 1.32 6 2 C5.01 3.32 4.02 4.64 3 6 C1.35 5.67 -0.3 5.34 -2 5 C-2.33 4.01 -2.66 3.02 -3 2 C-2.01 2 -1.02 2 0 2 C0 1.34 0 0.68 0 0 Z " fill="#357DC5" transform="translate(123,9)"/>
<path d="M0 0 C-0.33 1.32 -0.66 2.64 -1 4 C-4.63 3.34 -8.26 2.68 -12 2 C-12 1.67 -12 1.34 -12 1 C-10.56496445 0.63597631 -9.12683494 0.28413409 -7.6875 -0.0625 C-6.88699219 -0.25972656 -6.08648437 -0.45695313 -5.26171875 -0.66015625 C-3 -1 -3 -1 0 0 Z " fill="#E7ECF0" transform="translate(116,1)"/>
<path d="M0 0 C0.66 0.33 1.32 0.66 2 1 C0.68 4.3 -0.64 7.6 -2 11 C-2.66 10.67 -3.32 10.34 -4 10 C-4 7.03 -4 4.06 -4 1 C-3.01 1.495 -3.01 1.495 -2 2 C-1.34 1.34 -0.68 0.68 0 0 Z " fill="#EEF4F4" transform="translate(639,67)"/>
<path d="M0 0 C0.66 0 1.32 0 2 0 C2.99 2.97 3.98 5.94 5 9 C2 9 2 9 -1 8 C-1.33 7.01 -1.66 6.02 -2 5 C-1.34 4.67 -0.68 4.34 0 4 C0 2.68 0 1.36 0 0 Z " fill="#206CB7" transform="translate(35,152)"/>
<path d="M0 0 C2.625 0.375 2.625 0.375 5 1 C2.25 5.875 2.25 5.875 0 7 C-0.66 6.67 -1.32 6.34 -2 6 C-2 2 -2 2 0 0 Z " fill="#377DC2" transform="translate(147,144)"/>
<path d="M0 0 C0 3 0 3 -1.8984375 5.04296875 C-2.71570312 5.75066406 -3.53296875 6.45835937 -4.375 7.1875 C-5.59316406 8.26064453 -5.59316406 8.26064453 -6.8359375 9.35546875 C-9 11 -9 11 -11 11 C-9.52202738 7.32943063 -7.52384523 5.58914217 -4.375 3.25 C-3.55773438 2.63640625 -2.74046875 2.0228125 -1.8984375 1.390625 C-0.95871094 0.70226562 -0.95871094 0.70226562 0 0 Z " fill="#202123" transform="translate(62,122)"/>
<path d="M0 0 C0.66 0.66 1.32 1.32 2 2 C1.625 4.625 1.625 4.625 1 7 C0.34 7 -0.32 7 -1 7 C-1.2475 7.61875 -1.495 8.2375 -1.75 8.875 C-3.22047178 11.37480203 -4.41403076 11.83316022 -7 13 C-6.36771484 11.96939453 -6.36771484 11.96939453 -5.72265625 10.91796875 C-5.17480469 10.01691406 -4.62695312 9.11585937 -4.0625 8.1875 C-3.51722656 7.29417969 -2.97195313 6.40085937 -2.41015625 5.48046875 C-0.88990422 2.99296438 -0.88990422 2.99296438 0 0 Z " fill="#EAF3F1" transform="translate(396,88)"/>
<path d="M0 0 C3 1 3 1 4.1796875 2.703125 C5.1819244 5.50938831 5.19578721 7.77693736 5.125 10.75 C5.10695313 11.73484375 5.08890625 12.7196875 5.0703125 13.734375 C5.03550781 14.85585937 5.03550781 14.85585937 5 16 C4.67 16 4.34 16 4 16 C3.93941406 15.38511719 3.87882812 14.77023438 3.81640625 14.13671875 C3.73261719 13.32847656 3.64882813 12.52023438 3.5625 11.6875 C3.48128906 10.88699219 3.40007812 10.08648437 3.31640625 9.26171875 C3.04734307 6.83912821 3.04734307 6.83912821 2 4 C1.34 4 0.68 4 0 4 C-0.33 3.01 -0.66 2.02 -1 1 C-0.67 0.67 -0.34 0.34 0 0 Z " fill="#4783B8" transform="translate(507,80)"/>
<path d="M0 0 C0.66 1.32 1.32 2.64 2 4 C-0.64 5.65 -3.28 7.3 -6 9 C-6.99 8.34 -7.98 7.68 -9 7 C-2.25 3 -2.25 3 0 3 C0 2.01 0 1.02 0 0 Z " fill="#272727" transform="translate(102,73)"/>
<path d="M0 0 C0.90105469 0.02707031 1.80210937 0.05414063 2.73046875 0.08203125 C3.76107422 0.13423828 3.76107422 0.13423828 4.8125 0.1875 C4.8125 0.5175 4.8125 0.8475 4.8125 1.1875 C1.8425 1.1875 -1.1275 1.1875 -4.1875 1.1875 C-4.1875 1.8475 -4.1875 2.5075 -4.1875 3.1875 C-3.5275 3.5175 -2.8675 3.8475 -2.1875 4.1875 C-4.1675 4.5175 -6.1475 4.8475 -8.1875 5.1875 C-8.5175 6.1775 -8.8475 7.1675 -9.1875 8.1875 C-8.83539956 5.58195677 -8.54364134 3.67148695 -6.96875 1.53125 C-4.55565742 -0.28915317 -2.98564534 -0.11632384 0 0 Z " fill="#E2E9EE" transform="translate(488.1875,56.8125)"/>
<path d="M0 0 C0.33 1.98 0.66 3.96 1 6 C-3.55384615 6.36923077 -3.55384615 6.36923077 -5.8125 4.5 C-6.204375 4.005 -6.59625 3.51 -7 3 C-2.25 0 -2.25 0 0 0 Z " fill="#3679C1" transform="translate(54,8)"/>
<path d="M0 0 C2.97 1.65 5.94 3.3 9 5 C8.01 5.99 7.02 6.98 6 8 C3.36 6.02 0.72 4.04 -2 2 C-1.34 1.34 -0.68 0.68 0 0 Z " fill="#282726" transform="translate(95,93)"/>
<path d="M0 0 C0.66 0.66 1.32 1.32 2 2 C2.99 2.33 3.98 2.66 5 3 C-1.75 7 -1.75 7 -4 7 C-3.6875 4.625 -3.6875 4.625 -3 2 C-2.01 1.34 -1.02 0.68 0 0 Z " fill="#3478BC" transform="translate(735,81)"/>
<path d="M0 0 C3.53586014 3.17320782 5.58578031 5.16743695 6 10 C3 9 3 9 1.3125 6.6875 C0 4 0 4 0 0 Z " fill="#171B26" transform="translate(106,136)"/>
<path d="M0 0 C-0.66 1.65 -1.32 3.3 -2 5 C-2.33 4.34 -2.66 3.68 -3 3 C-3.99 3.66 -4.98 4.32 -6 5 C-6.99 5.33 -7.98 5.66 -9 6 C-9 4.35 -9 2.7 -9 1 C-5.92677456 0.08941469 -3.19902639 -0.08886184 0 0 Z " fill="#EDF5F7" transform="translate(465,97)"/>
<path d="M0 0 C0.99 0 1.98 0 3 0 C3.33 2.31 3.66 4.62 4 7 C1.23735711 7.59732819 -1.16032769 8 -4 8 C-4 7.34 -4 6.68 -4 6 C-2.34467377 4.98133771 -0.67739862 3.98189187 1 3 C1.33 2.34 1.66 1.68 2 1 C1.34 0.67 0.68 0.34 0 0 Z " fill="#2F2E2D" transform="translate(79,90)"/>
<path d="M0 0 C-1.07401108 2.91517292 -1.77810176 4.77810176 -4 7 C-4.99 6.67 -5.98 6.34 -7 6 C-7 5.01 -7 4.02 -7 3 C-2.77777778 0 -2.77777778 0 0 0 Z " fill="#ECEAEB" transform="translate(82,96)"/>
<path d="M0 0 C2.83328987 2.83328987 3.7191375 4.35446828 5 8 C4.34 8 3.68 8 3 8 C2.67 8.66 2.34 9.32 2 10 C1.34 9.67 0.68 9.34 0 9 C0 6.03 0 3.06 0 0 Z " fill="#F3F5F6" transform="translate(562,70)"/>
<path d="M0 0 C2 2 2 2 2 4 C2.99 5.485 2.99 5.485 4 7 C0.05957221 7 -1.08858219 5.53815912 -4 3 C-4.66 2.34 -5.32 1.68 -6 1 C-3.125 0.375 -3.125 0.375 0 0 Z " fill="#E9F0F2" transform="translate(388,49)"/>
<path d="M0 0 C2.475 0.99 2.475 0.99 5 2 C4.67 3.65 4.34 5.3 4 7 C1.525 6.01 1.525 6.01 -1 5 C-0.67 3.35 -0.34 1.7 0 0 Z " fill="#236DB8" transform="translate(81,208)"/>
<path d="M0 0 C2.475 0.495 2.475 0.495 5 1 C3.515 4.465 3.515 4.465 2 8 C1.34 7.67 0.68 7.34 0 7 C0 4.69 0 2.38 0 0 Z " fill="#EEF3F4" transform="translate(139,112)"/>
<path d="M0 0 C-1.44253657 3.36591866 -3.33264727 5.51047079 -6 8 C-6.99 7.67 -7.98 7.34 -9 7 C-8.07347299 5.82460004 -7.13336613 4.65989423 -6.1875 3.5 C-5.66542969 2.8503125 -5.14335938 2.200625 -4.60546875 1.53125 C-3 0 -3 0 0 0 Z " fill="#242528" transform="translate(119,44)"/>
<path d="M0 0 C2.9375 0.375 2.9375 0.375 6 1 C6.33 1.66 6.66 2.32 7 3 C6.34 3 5.68 3 5 3 C5 3.66 5 4.32 5 5 C2.69 4.34 0.38 3.68 -2 3 C-1.34 2.67 -0.68 2.34 0 2 C0 1.34 0 0.68 0 0 Z " fill="#3C7FC3" transform="translate(106,26)"/>
<path d="M0 0 C2.93200474 2.85276137 5.64315404 5.65079784 8 9 C5 9 5 9 2.875 7.875 C0.39855778 5.39855778 0.30394631 3.41939601 0 0 Z " fill="#EBF0F1" transform="translate(76,209)"/>
<path d="M0 0 C0.66 0.99 1.32 1.98 2 3 C1.0465616 6.46704871 -0.28676594 8.6567524 -3 11 C-3.66 10.67 -4.32 10.34 -5 10 C-3.35 6.7 -1.7 3.4 0 0 Z " fill="#DFE7ED" transform="translate(598,73)"/>
<path d="M0 0 C2.79872437 2.52788007 4.45773019 4.20411134 5 8 C4.01 8.33 3.02 8.66 2 9 C0.50178941 5.62902617 0 3.79557881 0 0 Z " fill="#EDF3F4" transform="translate(378,63)"/>
<path d="M0 0 C1.89213369 2.38573379 3.02391783 4.07175348 4 7 C2.35 7 0.7 7 -1 7 C-2 4 -2 4 -1.0625 1.8125 C-0.5365625 0.9153125 -0.5365625 0.9153125 0 0 Z " fill="#3879B9" transform="translate(571,61)"/>
<path d="M0 0 C0.66 0.33 1.32 0.66 2 1 C1.34 5.29 0.68 9.58 0 14 C-0.33 14 -0.66 14 -1 14 C-1.02685938 11.85423363 -1.04633088 9.70837355 -1.0625 7.5625 C-1.07410156 6.36753906 -1.08570312 5.17257813 -1.09765625 3.94140625 C-1 1 -1 1 0 0 Z " fill="#0D0D0E" transform="translate(74,110)"/>
<path d="M0 0 C2.97 0.495 2.97 0.495 6 1 C6 2.65 6 4.3 6 6 C4.02 5.01 2.04 4.02 0 3 C0 2.01 0 1.02 0 0 Z " fill="#E7E3E4" transform="translate(94,90)"/>
<path d="M0 0 C2.6855594 2.6855594 3.06049974 5.37621328 4 9 C1.525 8.01 1.525 8.01 -1 7 C-1.04254356 5.00045254 -1.04080783 2.99958364 -1 1 C-0.67 0.67 -0.34 0.34 0 0 Z " fill="#387AB8" transform="translate(670,64)"/>
<path d="M0 0 C2 4 2 4 2 7 C0.35 7.66 -1.3 8.32 -3 9 C-2.01 6.03 -1.02 3.06 0 0 Z " fill="#357ABC" transform="translate(229,61)"/>
<path d="M0 0 C0.33 0.66 0.66 1.32 1 2 C2.32 2 3.64 2 5 2 C5.33 3.32 5.66 4.64 6 6 C4.35 6.66 2.7 7.32 1 8 C0.67 5.36 0.34 2.72 0 0 Z " fill="#367ABA" transform="translate(664,57)"/>
<path d="M0 0 C2.15377564 2.62198774 3.40072174 4.64404172 4 8 C3.01 8.33 2.02 8.66 1 9 C0.01 6.36 -0.98 3.72 -2 1 C-1.34 0.67 -0.68 0.34 0 0 Z " fill="#28292B" transform="translate(67,56)"/>
<path d="M0 0 C0.33 0.66 0.66 1.32 1 2 C2.65438613 2.69658363 4.32254318 3.36096883 6 4 C6.99 4.66 7.98 5.32 9 6 C7.375 6.8125 7.375 6.8125 5 7 C2.75390165 5.53181864 0.97621323 3.84147142 -1 2 C-0.67 1.34 -0.34 0.68 0 0 Z " fill="#3878BA" transform="translate(81,212)"/>
<path d="M0 0 C1.89213369 2.38573379 3.02391783 4.07175348 4 7 C2.68 7.33 1.36 7.66 0 8 C-0.79953138 4.71303767 -1.09658936 3.28976808 0 0 Z " fill="#EAEFF2" transform="translate(11,127)"/>
<path d="M0 0 C1 2 1 2 0.44140625 3.9453125 C0.15136719 4.66460937 -0.13867188 5.38390625 -0.4375 6.125 C-0.72496094 6.84945312 -1.01242188 7.57390625 -1.30859375 8.3203125 C-1.53675781 8.87460938 -1.76492187 9.42890625 -2 10 C-2.66 10 -3.32 10 -4 10 C-3.38461538 3.47692308 -3.38461538 3.47692308 -1.4375 1.0625 C-0.7259375 0.5365625 -0.7259375 0.5365625 0 0 Z " fill="#4181C0" transform="translate(169,110)"/>
<path d="M0 0 C2.88575819 0.39803561 3.82189513 0.79009069 5.75 3.0625 C6.1625 3.701875 6.575 4.34125 7 5 C6.34 5.66 5.68 6.32 5 7 C3.29115995 5.37660195 1.62553283 3.70680947 0 2 C0 1.34 0 0.68 0 0 Z " fill="#3977B8" transform="translate(129,41)"/>
<path d="M0 0 C1 3 1 3 -0.125 5.625 C-2 8 -2 8 -4.6875 8.8125 C-5.450625 8.874375 -6.21375 8.93625 -7 9 C-6.02180976 7.68677212 -5.0424189 6.37443848 -4.0625 5.0625 C-3.51722656 4.33160156 -2.97195312 3.60070312 -2.41015625 2.84765625 C-1 1 -1 1 0 0 Z " fill="#3C83C4" transform="translate(136,126)"/>
<path d="M0 0 C0 0.99 0 1.98 0 3 C-1.75 3.6875 -1.75 3.6875 -4 4 C-6.25 2.5625 -6.25 2.5625 -8 1 C-5.29120665 -0.35439668 -2.99066732 -0.06501451 0 0 Z " fill="#2B76BA" transform="translate(475,103)"/>
<path d="M0 0 C2.25245881 2.68841859 3.88213958 4.64641875 5 8 C4.01 8.33 3.02 8.66 2 9 C-1.07692308 4.56923077 -1.07692308 4.56923077 -0.6875 1.6875 C-0.460625 1.130625 -0.23375 0.57375 0 0 Z " fill="#282727" transform="translate(93,96)"/>
<path d="M0 0 C3.875 1.75 3.875 1.75 5 4 C2.03 4 -0.94 4 -4 4 C-3.01 3.67 -2.02 3.34 -1 3 C-0.67 2.01 -0.34 1.02 0 0 Z " fill="#E4DFE2" transform="translate(78,82)"/>
<path d="M0 0 C1 3 1 3 0 6 C-1.65 6 -3.3 6 -5 6 C-5.33 5.34 -5.66 4.68 -6 4 C-4.35 3.67 -2.7 3.34 -1 3 C-0.67 2.01 -0.34 1.02 0 0 Z " fill="#377CBC" transform="translate(731,73)"/>
<path d="M0 0 C2.475 0.99 2.475 0.99 5 2 C2.01353231 3.99097846 -0.59687262 4.94124926 -4 6 C-3.34 4.68 -2.68 3.36 -2 2 C-1.34 2 -0.68 2 0 2 C0 1.34 0 0.68 0 0 Z " fill="#EDF3F4" transform="translate(55,3)"/>
<path d="M0 0 C0 0.66 0 1.32 0 2 C0.99 2.33 1.98 2.66 3 3 C0 5 0 5 -2.1875 4.625 C-2.785625 4.41875 -3.38375 4.2125 -4 4 C-4 3.01 -4 2.02 -4 1 C-2 0 -2 0 0 0 Z " fill="#3379BF" transform="translate(102,200)"/>
<path d="M0 0 C0.33 0.99 0.66 1.98 1 3 C0.34 3.66 -0.32 4.32 -1 5 C-1.69748583 6.31747324 -2.36959957 7.64914193 -3 9 C-3.99 8.34 -4.98 7.68 -6 7 C-4.02 4.69 -2.04 2.38 0 0 Z " fill="#E3EBEC" transform="translate(145,154)"/>
<path d="M0 0 C0.66 0.33 1.32 0.66 2 1 C1.34 2.65 0.68 4.3 0 6 C-1.32 5.67 -2.64 5.34 -4 5 C-3 2 -3 2 0 0 Z " fill="#0F1112" transform="translate(90,126)"/>
<path d="M0 0 C0.66 0 1.32 0 2 0 C1.67 2.31 1.34 4.62 1 7 C0.67 6.34 0.34 5.68 0 5 C-1.32 5.33 -2.64 5.66 -4 6 C-2.7260411 3.96166576 -1.38938077 1.96147874 0 0 Z " fill="#D4D3D4" transform="translate(84,99)"/>
<path d="M0 0 C4 6 4 6 4 10 C3.34 10 2.68 10 2 10 C1.46987262 8.71211992 0.9511671 7.41953322 0.4375 6.125 C0.14746094 5.40570313 -0.14257812 4.68640625 -0.44140625 3.9453125 C-1 2 -1 2 0 0 Z " fill="#4183B5" transform="translate(684,97)"/>
<path d="M0 0 C2.97903734 2.97903734 4 5.80285329 4 10 C3.01 9.67 2.02 9.34 1 9 C0.67 6.03 0.34 3.06 0 0 Z " fill="#3E7DB8" transform="translate(260,74)"/>
<path d="M0 0 C1.85776765 3.13498292 2.20140476 5.37471432 2 9 C1.34 9 0.68 9 0 9 C-0.87890625 2.84765625 -0.87890625 2.84765625 -1 1 C-0.67 0.67 -0.34 0.34 0 0 Z " fill="#4784C1" transform="translate(170,66)"/>
<path d="M0 0 C1.65 1.65 3.3 3.3 5 5 C4.34 6.32 3.68 7.64 3 9 C0.70620251 5.55930376 0 4.27709699 0 0 Z " fill="#276CAF" transform="translate(146,65)"/>
<path d="M0 0 C0.33 0 0.66 0 1 0 C1.36923077 5.53846154 1.36923077 5.53846154 -0.5 7.875 C-1.2425 8.431875 -1.2425 8.431875 -2 9 C-2.25 3.375 -2.25 3.375 0 0 Z " fill="#0E0F10" transform="translate(105,67)"/>
<path d="M0 0 C0.99 0 1.98 0 3 0 C3.66 1.65 4.32 3.3 5 5 C4.01 5 3.02 5 2 5 C1.34 4.34 0.68 3.68 0 3 C0 2.01 0 1.02 0 0 Z " fill="#3879BB" transform="translate(69,199)"/>
<path d="M0 0 C2.64 0.33 5.28 0.66 8 1 C8 1.66 8 2.32 8 3 C5.03 3 2.06 3 -1 3 C-0.67 2.01 -0.34 1.02 0 0 Z " fill="#1A6AB9" transform="translate(214,106)"/>
<path d="M0 0 C1.32 0.99 2.64 1.98 4 3 C-0.625 5.125 -0.625 5.125 -4 4 C-2.68 2.68 -1.36 1.36 0 0 Z " fill="#2D79BD" transform="translate(498,105)"/>
<path d="M0 0 C2.88437779 1.29299694 4.87219421 2.65941363 7 5 C5.68 5.33 4.36 5.66 3 6 C2.01 4.02 1.02 2.04 0 0 Z " fill="#EAE8E7" transform="translate(93,95)"/>
<path d="M0 0 C1.98 0 3.96 0 6 0 C4 3 4 3 1.375 3.6875 C0.199375 3.8421875 0.199375 3.8421875 -1 4 C-0.67 2.68 -0.34 1.36 0 0 Z " fill="#ECF2F2" transform="translate(642,97)"/>
<path d="M0 0 C0.66 0.66 1.32 1.32 2 2 C1.625 5.125 1.625 5.125 1 8 C-2 4.25 -2 4.25 -2 2 C-1.34 2 -0.68 2 0 2 C0 1.34 0 0.68 0 0 Z " fill="#F0F5F3" transform="translate(684,89)"/>
<path d="M0 0 C2.475 0.99 2.475 0.99 5 2 C4.67 3.32 4.34 4.64 4 6 C3.34 6 2.68 6 2 6 C1.34 4.02 0.68 2.04 0 0 Z " fill="#F3F8F4" transform="translate(266,87)"/>
<path d="M0 0 C1.5 1.375 1.5 1.375 3 3 C3 3.66 3 4.32 3 5 C1.68 4.34 0.36 3.68 -1 3 C-0.67 2.01 -0.34 1.02 0 0 Z M0 5 C0.99 5.33 1.98 5.66 3 6 C3 6.66 3 7.32 3 8 C2.01 7.67 1.02 7.34 0 7 C0 6.34 0 5.68 0 5 Z " fill="#EFF4F7" transform="translate(100,207)"/>
<path d="M0 0 C1.65 1.65 3.3 3.3 5 5 C1.48283697 5 0.62878252 4.17554415 -2 2 C-1.34 1.34 -0.68 0.68 0 0 Z " fill="#EDF2F3" transform="translate(60,192)"/>
<path d="M0 0 C1.77706209 2.66559313 2.87548273 5.0280615 4 8 C3.34 8.66 2.68 9.32 2 10 C-0.09350689 6.5980513 -0.17942163 3.94727588 0 0 Z " fill="#2A2D30" transform="translate(103,128)"/>
<path d="M0 0 C3.73639216 1.24546405 4.18756513 2.63404953 6 6 C5.01 6 4.02 6 3 6 C0 2.66666667 0 2.66666667 0 0 Z " fill="#1F2021" transform="translate(112,120)"/>
<path d="M0 0 C1.125 1.75 1.125 1.75 2 4 C1.125 6.25 1.125 6.25 0 8 C-0.66 8 -1.32 8 -2 8 C-1.47731534 5.23723823 -0.89130413 2.6739124 0 0 Z " fill="#E5EDEE" transform="translate(227,98)"/>
<path d="M0 0 C0.33 0 0.66 0 1 0 C1.125 5.75 1.125 5.75 0 8 C-0.99 7.67 -1.98 7.34 -3 7 C-2.01 4.69 -1.02 2.38 0 0 Z " fill="#2370AE" transform="translate(230,72)"/>
<path d="M0 0 C1.32 0 2.64 0 4 0 C3.67 2.97 3.34 5.94 3 9 C2.34 8.67 1.68 8.34 1 8 C0.40644386 5.35139573 0.25790731 2.70802678 0 0 Z " fill="#3A7AB9" transform="translate(477,58)"/>
<path d="M0 0 C0.33 0 0.66 0 1 0 C1.25 5.625 1.25 5.625 -1 9 C-1.66 9 -2.32 9 -3 9 C-2.01 6.03 -1.02 3.06 0 0 Z " fill="#387CB7" transform="translate(646,54)"/>
<path d="M0 0 C0.66 0.33 1.32 0.66 2 1 C2 1.66 2 2.32 2 3 C0.03852126 4.38938077 -1.96166576 5.7260411 -4 7 C-3.43628586 3.73045798 -2.50037734 2.17424117 0 0 Z " fill="#1F6BBC" transform="translate(30,23)"/>
</svg>
